{"glyphs":{"0":{"ha":736,"x_min":60,"x_max":672,"o":"m 165 838 q 368 918 246 918 q 596 808 519 918 q 672 450 672 697 q 598 93 672 204 q 368 -18 524 -18 q 135 99 211 -18 q 64 450 60 215 q 69 578 64 521 q 85 683 74 636 q 116 768 96 731 q 165 838 136 806 m 268 144 q 368 96 300 96 q 437 113 408 96 q 484 172 465 131 q 512 281 503 213 q 521 450 521 349 q 512 619 521 551 q 484 728 503 688 q 437 787 465 769 q 368 804 408 804 q 299 787 328 804 q 252 728 271 769 q 224 619 233 688 q 215 450 215 551 q 268 144 215 214 z "},"1":{"ha":736,"x_min":82,"x_max":660,"o":"m 338 119 l 336 213 l 336 529 q 343 697 336 551 q 143 547 265 601 q 82 633 93 575 q 342 900 276 754 q 409 907 371 907 q 478 900 447 907 l 478 213 l 476 119 l 558 121 l 654 121 q 660 60 660 94 q 654 0 660 26 l 131 0 q 125 61 125 28 q 131 121 125 94 l 258 121 l 338 119 z "},"2":{"ha":736,"x_min":75,"x_max":660,"o":"m 660 126 q 642 33 660 67 q 564 0 624 0 l 132 0 q 75 90 75 50 q 249 354 75 201 l 385 474 q 463 567 438 519 q 489 661 489 615 q 451 761 489 724 q 356 799 414 799 q 255 762 297 799 q 189 667 213 725 q 129 681 160 668 q 85 715 99 694 q 126 795 100 758 q 190 859 153 832 q 274 902 226 886 q 378 918 321 918 q 481 899 433 918 q 564 845 529 879 q 618 766 599 811 q 638 669 638 721 q 626 577 638 617 q 593 503 615 538 q 538 436 571 468 q 464 368 506 404 l 357 276 q 221 115 235 171 q 321 124 275 121 q 404 126 367 126 l 660 126 z "},"3":{"ha":736,"x_min":67,"x_max":660,"o":"m 597 744 l 451 589 q 429 568 442 579 q 401 546 417 557 q 505 526 457 544 q 587 474 553 508 q 640 390 621 440 q 660 274 660 340 q 634 153 660 207 q 565 61 608 99 q 464 3 521 24 q 344 -18 407 -18 q 67 74 175 -18 q 131 169 82 132 q 315 100 225 100 q 458 148 407 100 q 510 279 510 196 q 467 405 510 361 q 363 449 425 449 q 258 425 303 449 q 200 503 219 443 l 374 692 q 468 782 444 763 l 464 789 q 303 775 410 775 l 107 775 q 99 831 99 797 q 111 900 99 867 l 596 900 q 626 808 626 843 q 597 744 626 778 z "},"4":{"ha":736,"x_min":53,"x_max":686,"o":"m 544 193 l 546 118 l 546 0 q 474 -6 514 -6 q 406 0 435 -6 l 406 118 l 407 193 l 332 190 l 86 190 q 53 270 53 244 q 81 365 53 296 l 315 908 q 388 908 346 915 q 450 882 431 900 l 290 513 q 193 311 229 371 l 197 306 q 356 313 285 313 l 407 313 q 406 357 406 328 l 406 465 q 431 547 406 517 q 500 576 456 576 l 539 576 l 546 569 l 546 386 l 544 313 l 608 314 l 682 314 q 686 253 686 285 q 676 192 686 222 l 608 192 l 544 193 z "},"5":{"ha":736,"x_min":78,"x_max":657,"o":"m 610 900 q 619 840 619 872 q 556 776 619 776 l 263 776 l 263 707 l 253 574 q 375 599 313 599 q 581 522 504 599 q 657 297 657 444 q 631 167 657 225 q 563 67 606 108 q 461 4 519 26 q 339 -18 403 -18 q 78 71 179 -18 q 100 123 82 94 q 139 167 118 151 q 236 116 189 132 q 325 100 283 100 q 456 153 406 100 q 507 300 507 207 q 494 383 507 349 q 455 440 481 418 q 400 473 429 463 q 335 483 371 483 q 257 469 297 483 q 179 424 217 456 q 140 441 160 426 q 110 472 119 456 l 129 890 l 139 900 l 610 900 z "},"6":{"ha":736,"x_min":69,"x_max":674,"o":"m 167 71 q 124 139 142 103 q 93 219 106 175 q 75 322 81 264 q 69 454 69 379 q 93 649 69 563 q 162 794 117 735 q 274 886 207 854 q 428 918 340 918 q 628 874 550 918 q 576 772 621 803 q 436 803 510 803 q 278 727 331 803 q 221 522 225 651 q 422 601 306 601 q 607 526 540 601 q 674 304 674 451 q 652 174 674 233 q 592 72 631 114 q 498 6 553 29 q 375 -18 443 -18 q 167 71 243 -18 m 385 481 q 221 403 294 481 l 221 381 q 262 166 221 239 q 383 93 303 93 q 488 146 450 93 q 526 290 526 199 q 385 481 526 481 z "},"7":{"ha":736,"x_min":83,"x_max":672,"o":"m 96 900 l 646 900 q 672 814 672 847 q 650 750 672 781 l 603 682 q 440 381 497 526 q 364 50 383 236 l 360 0 q 288 -7 328 -7 q 210 0 247 -7 l 215 57 q 442 663 249 385 l 457 685 q 535 782 485 728 l 529 788 q 318 775 472 775 l 90 775 q 83 833 83 800 q 96 900 83 867 z "},"8":{"ha":736,"x_min":61,"x_max":674,"o":"m 61 226 q 107 368 61 306 q 224 468 153 431 q 85 681 85 543 q 106 776 85 732 q 167 851 128 819 q 257 900 206 882 q 369 918 308 918 q 482 901 431 918 q 570 852 533 883 q 628 778 607 821 q 649 686 649 736 q 611 567 649 619 q 514 483 574 515 q 674 238 674 397 q 649 132 674 179 q 582 51 625 85 q 482 0 539 18 q 358 -18 425 -18 q 237 -1 292 -18 q 143 47 182 15 q 83 123 104 78 q 61 226 61 168 m 329 424 l 326 424 q 208 238 208 357 q 253 126 208 167 q 365 86 297 86 q 481 128 436 86 q 525 239 525 171 q 353 415 525 364 l 329 424 m 229 682 q 390 532 229 576 l 407 525 q 506 681 506 582 q 466 776 506 740 q 367 811 426 811 q 269 776 308 811 q 229 682 229 740 z "},"9":{"ha":736,"x_min":63,"x_max":667,"o":"m 569 829 q 613 761 594 797 q 642 680 631 725 q 660 578 654 635 q 667 446 667 521 q 643 251 667 338 q 574 106 619 165 q 463 14 529 46 q 308 -18 396 -18 q 108 26 186 -18 q 160 128 115 97 q 300 97 226 97 q 458 172 406 97 q 515 376 511 247 q 313 299 426 299 q 129 374 196 299 q 63 596 63 449 q 85 729 63 669 q 147 831 107 789 q 240 895 186 872 q 360 918 294 918 q 569 829 493 918 m 351 419 q 515 496 439 419 l 515 519 q 474 734 515 661 q 351 807 433 807 q 247 754 285 807 q 210 610 210 701 q 351 419 210 419 z "},"\r":{"ha":258,"x_min":0,"x_max":0,"o":""}," ":{"ha":306,"x_min":0,"x_max":0,"o":""},"!":{"ha":400,"x_min":107,"x_max":289,"o":"m 142 269 l 125 917 q 278 958 181 958 l 288 949 l 253 269 q 226 264 242 265 q 196 263 211 263 q 167 264 181 263 q 142 269 153 265 m 119 135 q 197 153 147 153 q 237 149 219 153 q 266 141 254 146 q 283 117 278 136 q 289 69 289 99 q 283 24 289 42 q 266 0 278 6 q 237 -9 254 -6 q 197 -12 219 -12 q 160 -10 176 -12 q 130 -1 143 -7 q 112 22 117 4 q 107 69 107 40 q 119 135 107 115 z "},"\"":{"ha":542,"x_min":64,"x_max":478,"o":"m 325 1043 q 396 1061 357 1061 q 468 1043 436 1061 q 478 985 478 1006 q 469 928 478 967 q 450 819 458 874 q 435 706 442 764 q 396 699 422 699 q 375 700 385 699 q 358 706 365 701 q 329 894 343 821 q 315 986 315 967 q 325 1043 315 1006 m 74 1043 q 144 1061 106 1061 q 217 1043 185 1061 q 226 985 226 1006 q 225 961 226 975 q 219 928 224 947 q 199 819 208 874 q 183 706 190 764 q 167 700 176 701 q 146 699 157 699 q 124 700 135 699 q 107 706 114 701 q 78 894 92 821 q 64 986 64 967 q 74 1043 64 1006 z "},"#":{"ha":896,"x_min":32,"x_max":868,"o":"m 594 692 l 639 888 q 703 897 663 897 q 768 888 744 897 l 724 692 l 860 692 q 868 631 868 667 q 860 572 868 596 l 697 572 l 644 333 l 793 333 q 803 274 803 310 q 793 215 803 239 l 618 215 l 574 18 q 508 8 550 8 q 443 18 467 8 l 488 215 l 314 215 l 269 18 q 204 8 247 8 q 139 18 161 8 l 183 215 l 42 215 q 32 274 32 239 q 42 333 32 310 l 210 333 l 264 572 l 107 572 q 99 631 99 596 q 107 692 99 667 l 290 692 l 335 888 q 399 897 358 897 q 464 888 440 897 l 419 692 l 594 692 m 393 572 l 340 333 l 514 333 l 568 572 l 393 572 z "},"$":{"ha":693,"x_min":46,"x_max":639,"o":"m 46 136 q 64 199 47 165 q 103 247 81 233 q 354 169 243 169 q 451 194 413 169 q 489 263 489 218 q 388 372 489 335 l 249 422 q 120 504 163 453 q 78 625 78 556 q 133 767 78 708 q 283 842 188 826 l 283 956 q 339 961 300 961 q 399 956 381 961 l 399 844 q 508 824 454 839 q 615 785 563 808 q 563 671 615 715 q 347 725 443 725 q 258 701 292 725 q 225 639 225 676 q 248 583 225 603 q 321 547 271 564 l 456 497 q 589 410 539 465 q 639 268 639 356 q 573 121 639 181 q 393 51 507 61 l 393 -54 q 333 -58 368 -58 q 278 -54 299 -58 l 278 54 q 46 136 139 72 z "},"%":{"ha":1260,"x_min":67,"x_max":1193,"o":"m 1125 40 q 975 -17 1068 -17 q 810 56 865 -17 q 756 269 756 128 q 813 483 756 414 q 974 553 869 553 q 1135 484 1078 553 q 1193 268 1193 415 q 1125 40 1193 108 m 1071 267 q 975 457 1071 457 q 879 267 879 457 q 975 78 879 78 q 1071 267 1071 78 m 436 908 q 504 681 504 840 q 447 465 504 533 q 285 396 389 396 q 124 465 181 396 q 67 681 67 533 q 124 896 67 826 q 285 965 181 965 q 436 908 379 965 m 285 871 q 190 681 190 871 q 285 492 190 492 q 381 681 381 492 q 285 871 381 871 m 297 0 l 821 949 q 879 956 846 956 q 961 949 936 956 l 439 0 q 379 -7 414 -7 q 330 -6 350 -7 q 297 0 310 -4 z "},"&":{"ha":865,"x_min":69,"x_max":842,"o":"m 693 440 l 694 210 q 697 145 694 197 q 704 0 699 93 q 635 -8 676 -8 q 600 -7 617 -8 q 569 -1 583 -6 l 558 56 q 333 -18 456 -18 q 223 2 272 -18 q 140 57 174 22 q 88 138 106 92 q 69 238 69 185 q 84 335 69 290 q 124 414 99 379 q 182 472 149 449 q 253 508 215 496 q 149 587 189 529 q 110 719 110 644 q 131 819 110 774 q 190 897 151 864 q 282 949 228 931 q 403 967 336 967 q 656 926 539 967 q 617 813 656 856 q 424 849 500 849 q 303 811 344 849 q 263 707 263 774 q 305 603 263 640 q 435 565 347 565 l 690 565 q 822 586 774 565 q 842 517 842 563 q 738 440 842 440 l 693 440 m 553 353 q 553 403 553 381 q 554 440 553 425 l 421 440 q 334 426 371 440 q 272 387 297 411 q 235 329 247 363 q 222 258 222 296 q 262 141 222 183 q 369 99 301 99 q 553 164 472 99 l 553 353 z "},"'":{"ha":293,"x_min":60,"x_max":222,"o":"m 69 1043 q 140 1061 101 1061 q 213 1043 181 1061 q 222 985 222 1006 q 214 928 222 967 q 194 819 203 874 q 179 706 186 764 q 140 699 167 699 q 119 700 129 699 q 103 706 110 701 q 74 894 88 821 q 60 986 60 967 q 69 1043 60 1006 z "},"(":{"ha":461,"x_min":86,"x_max":439,"o":"m 439 1074 q 242 450 242 818 q 439 -172 242 83 q 353 -250 414 -231 q 241 -107 290 -189 q 158 68 192 -25 q 105 260 124 161 q 86 451 86 358 q 105 642 86 544 q 158 833 124 740 q 241 1008 192 926 q 353 1151 290 1090 q 439 1074 414 1132 z "},")":{"ha":461,"x_min":22,"x_max":374,"o":"m 22 -172 q 219 450 219 88 q 22 1074 219 814 q 108 1151 47 1132 q 219 1008 169 1090 q 302 833 268 926 q 355 642 336 740 q 374 450 374 543 q 356 259 374 357 q 303 68 338 161 q 219 -107 268 -25 q 108 -250 171 -189 q 22 -172 47 -231 z "},"*":{"ha":700,"x_min":60,"x_max":640,"o":"m 63 760 q 72 822 60 783 q 101 879 85 860 l 174 854 q 314 781 221 838 q 289 938 289 878 l 288 1015 q 349 1025 310 1025 q 413 1015 389 1025 l 411 938 q 385 782 411 885 q 526 854 479 838 l 600 878 q 628 824 615 861 q 639 760 640 786 l 564 736 q 407 714 511 719 q 521 601 486 649 l 565 540 q 523 496 554 519 q 465 467 492 472 l 421 529 q 350 671 385 581 q 279 531 315 579 l 235 467 q 178 497 210 474 q 133 540 147 519 l 179 601 q 292 714 211 644 q 136 738 189 719 l 63 760 z "},"+":{"ha":736,"x_min":72,"x_max":664,"o":"m 304 468 l 303 536 l 303 707 q 369 713 331 713 q 433 707 407 713 l 433 536 l 432 468 l 500 469 l 658 469 q 664 406 664 442 q 658 346 664 369 l 500 346 l 432 347 l 433 281 l 433 108 q 369 103 407 103 q 303 108 331 103 l 303 281 l 304 347 l 236 346 l 78 346 q 72 406 72 369 q 78 469 72 443 l 236 469 l 304 468 z "},",":{"ha":374,"x_min":46,"x_max":289,"o":"m 274 144 q 289 53 289 103 q 236 -114 289 -39 q 83 -224 183 -189 q 55 -194 64 -214 q 46 -151 46 -175 q 126 -93 94 -131 q 161 -12 158 -56 q 119 -1 135 -6 q 101 16 104 4 q 95 42 97 28 q 93 78 93 57 q 98 128 93 110 q 117 151 103 146 q 149 159 131 156 q 190 163 167 163 q 274 144 247 163 z "},"-":{"ha":486,"x_min":64,"x_max":422,"o":"m 415 308 l 71 308 q 64 370 64 332 q 71 432 64 408 l 415 432 q 422 369 422 407 q 415 308 422 332 z "},".":{"ha":365,"x_min":85,"x_max":281,"o":"m 97 144 q 183 164 132 164 q 225 160 207 164 q 257 151 243 157 q 276 126 271 144 q 281 76 281 107 q 277 28 281 47 q 261 3 274 10 q 231 -8 249 -4 q 185 -11 213 -11 q 140 -8 158 -11 q 107 1 121 -4 q 89 26 93 7 q 85 76 85 46 q 97 144 85 121 z "},"/":{"ha":586,"x_min":10,"x_max":574,"o":"m 10 -107 l 449 1057 q 574 1011 518 1053 l 135 -154 q 10 -107 65 -150 z "},":":{"ha":374,"x_min":89,"x_max":285,"o":"m 101 144 q 188 164 138 164 q 229 160 211 164 q 261 151 247 157 q 280 126 275 144 q 285 76 285 107 q 280 27 285 47 q 264 1 275 7 q 235 -8 253 -4 q 189 -11 217 -11 q 144 -8 163 -11 q 112 1 125 -4 q 94 26 99 6 q 89 76 89 46 q 101 144 89 121 m 101 601 q 188 621 138 621 q 229 617 211 621 q 261 608 247 614 q 280 583 275 601 q 285 533 285 564 q 281 485 285 504 q 265 458 276 465 q 235 449 253 451 q 189 446 217 446 q 144 449 163 446 q 112 458 125 453 q 94 483 99 463 q 89 533 89 503 q 101 601 89 578 z "},";":{"ha":379,"x_min":44,"x_max":288,"o":"m 272 144 q 288 53 288 103 q 235 -114 288 -39 q 82 -224 182 -189 q 53 -194 63 -214 q 44 -151 44 -175 q 125 -93 93 -131 q 160 -12 157 -56 q 119 -1 133 -6 q 101 16 104 4 q 94 42 97 28 q 92 78 92 57 q 97 128 92 110 q 116 151 103 146 q 147 159 129 156 q 189 163 165 163 q 272 144 246 163 m 104 601 q 190 621 139 621 q 232 619 214 621 q 263 608 250 617 q 281 581 275 599 q 288 533 288 564 q 283 488 288 504 q 267 461 278 471 q 238 449 256 451 q 192 446 219 446 q 147 448 165 446 q 115 459 128 450 q 97 485 103 468 q 92 533 92 503 q 104 601 92 578 z "},"<":{"ha":736,"x_min":57,"x_max":654,"o":"m 75 464 l 588 744 q 654 632 647 708 l 325 458 l 222 411 l 222 403 l 325 356 l 654 182 q 632 116 651 147 q 588 68 613 85 l 75 349 q 75 464 57 414 z "},"=":{"ha":736,"x_min":72,"x_max":664,"o":"m 658 214 l 78 214 q 72 276 72 240 q 78 338 72 311 l 658 338 q 664 276 664 311 q 658 214 664 240 m 658 482 l 78 482 q 72 542 72 506 q 78 606 72 578 l 658 606 q 664 542 664 578 q 658 482 664 506 z "},">":{"ha":736,"x_min":82,"x_max":679,"o":"m 661 350 l 149 69 q 82 183 89 106 l 411 356 q 514 403 436 369 l 514 413 q 411 460 436 446 l 82 633 q 104 699 85 668 q 149 747 124 731 l 661 465 q 661 350 679 401 z "},"?":{"ha":550,"x_min":15,"x_max":538,"o":"m 15 896 q 271 967 142 967 q 469 902 400 967 q 538 729 538 838 q 492 577 536 646 q 357 460 449 508 l 269 413 l 258 271 q 203 263 233 263 q 149 271 174 263 l 140 478 l 153 493 l 219 528 q 344 617 303 571 q 385 715 385 663 q 349 803 385 768 q 246 839 314 839 q 165 827 210 839 q 68 789 121 815 q 33 836 49 806 q 15 896 17 867 m 126 133 q 204 151 154 151 q 242 148 225 151 q 274 138 260 144 q 292 115 288 132 q 296 68 296 99 q 290 20 296 38 q 274 -1 285 3 q 244 -10 264 -6 q 204 -14 225 -14 q 165 -10 182 -14 q 137 -1 149 -6 q 119 22 125 3 q 114 68 114 40 q 126 133 114 110 z "},"@":{"ha":1318,"x_min":69,"x_max":1260,"o":"m 921 572 l 919 218 q 979 122 919 122 q 1078 191 1039 122 q 1118 407 1118 260 q 1087 581 1118 503 q 999 716 1056 660 q 860 803 942 772 q 676 833 778 833 q 489 794 574 833 q 343 685 404 754 q 248 520 282 615 q 214 314 214 425 q 244 115 214 201 q 328 -31 274 28 q 458 -119 382 -89 q 629 -150 535 -150 q 911 -99 788 -150 q 949 -200 949 -139 q 619 -261 789 -261 q 396 -223 497 -261 q 222 -112 294 -185 q 110 67 150 -39 q 69 311 69 174 q 115 563 69 447 q 242 762 161 678 q 435 893 324 846 q 676 940 546 940 q 913 902 806 940 q 1098 794 1021 864 q 1217 624 1175 724 q 1260 403 1260 525 q 1237 240 1260 313 q 1176 117 1214 168 q 1086 40 1138 67 q 976 13 1035 13 q 808 99 861 13 q 617 7 722 7 q 453 90 513 7 q 394 321 394 174 q 413 456 394 393 q 469 567 432 519 q 559 641 506 614 q 682 668 613 668 q 921 572 818 668 m 646 119 q 719 143 681 119 q 783 201 757 167 l 783 522 q 674 564 742 564 q 614 546 640 564 q 570 495 588 528 q 543 417 553 463 q 533 318 533 372 q 646 119 533 119 z "},"A":{"ha":849,"x_min":28,"x_max":821,"o":"m 596 231 l 513 229 l 322 229 l 242 231 l 168 -1 q 106 -7 144 -7 q 32 3 67 -7 l 28 10 l 342 949 q 426 954 371 954 q 510 949 482 954 l 821 10 q 746 -10 792 -10 q 681 7 700 -10 q 647 68 661 24 l 596 231 m 279 350 l 350 351 l 489 351 q 558 350 546 350 l 494 551 q 421 803 446 707 l 414 803 q 360 601 397 726 l 279 350 z "},"B":{"ha":840,"x_min":126,"x_max":772,"o":"m 442 -6 l 135 -3 l 126 8 l 126 940 l 135 950 l 424 954 q 651 889 575 954 q 726 703 726 824 q 690 584 726 636 q 596 508 654 532 q 663 474 631 497 q 719 418 696 450 q 758 347 743 386 q 772 265 772 308 q 690 69 772 143 q 442 -6 608 -6 m 272 106 l 440 107 q 526 121 492 107 q 582 158 561 135 q 612 210 603 181 q 621 275 621 240 q 610 335 621 306 q 577 389 600 365 q 518 427 554 413 q 432 442 482 442 l 272 442 l 272 106 m 272 843 l 272 556 l 418 556 q 493 567 463 556 q 542 597 524 578 q 569 643 561 617 q 578 699 578 669 q 421 842 578 842 q 331 842 368 842 q 272 843 294 842 z "},"C":{"ha":839,"x_min":68,"x_max":783,"o":"m 639 621 q 628 706 639 665 q 594 778 618 747 q 533 828 571 810 q 442 847 496 847 q 279 751 335 847 q 224 476 224 656 q 283 205 224 299 q 460 111 343 111 q 703 217 576 111 q 776 121 760 179 q 706 65 746 90 q 623 22 667 40 q 533 -8 579 3 q 442 -18 486 -18 q 263 23 335 -18 q 149 131 190 64 q 88 287 108 199 q 68 469 68 375 q 97 688 68 594 q 177 842 126 781 q 296 935 228 904 q 440 967 364 967 q 583 944 519 967 q 691 885 646 922 q 760 799 736 847 q 783 696 783 750 q 700 613 783 613 q 639 621 674 613 z "},"D":{"ha":900,"x_min":126,"x_max":829,"o":"m 682 64 q 633 34 661 47 q 571 12 604 21 q 503 -2 538 3 q 439 -7 469 -7 q 332 -6 407 -7 q 135 -1 257 -4 l 126 8 l 126 940 l 135 950 q 440 954 256 954 q 628 917 553 954 q 748 814 703 879 q 811 660 793 749 q 829 472 829 572 q 799 234 829 333 q 682 64 769 135 m 440 835 l 274 835 l 274 113 l 440 113 q 676 474 676 113 q 617 749 676 663 q 440 835 558 835 z "},"E":{"ha":786,"x_min":125,"x_max":721,"o":"m 271 192 l 269 121 q 361 125 311 125 l 721 125 q 717 68 721 88 q 622 -1 704 -1 l 210 -1 q 148 23 171 -1 q 125 90 125 47 l 125 940 l 135 949 l 693 949 q 697 890 697 926 q 686 824 697 853 l 269 824 l 271 733 l 271 539 l 357 540 l 618 540 q 625 478 625 515 q 618 418 625 442 l 357 418 q 271 419 303 418 l 271 192 z "},"F":{"ha":725,"x_min":126,"x_max":693,"o":"m 272 824 l 274 660 l 274 538 q 332 539 294 539 l 611 539 q 618 477 618 515 q 611 415 618 439 l 274 415 l 274 0 q 199 -6 242 -6 q 126 0 156 -6 l 126 940 l 135 949 l 685 949 q 693 890 693 924 q 610 822 693 822 l 406 822 q 272 824 311 822 z "},"G":{"ha":893,"x_min":68,"x_max":806,"o":"m 486 499 l 700 500 q 806 403 806 500 l 806 42 q 463 -18 650 -18 q 280 21 358 -18 q 156 128 201 60 q 68 468 68 263 q 103 694 68 596 q 197 850 138 793 q 479 967 318 967 q 803 865 668 967 q 732 754 792 796 q 479 840 618 840 q 293 750 364 840 q 222 467 222 660 q 488 104 222 104 q 664 128 586 104 l 664 283 q 667 372 664 344 l 544 372 q 475 438 475 372 q 486 499 475 469 z "},"H":{"ha":938,"x_min":126,"x_max":811,"o":"m 664 551 l 663 654 l 663 949 q 737 954 692 954 q 811 949 782 954 l 811 0 q 737 -6 779 -6 q 663 0 694 -6 l 663 325 l 664 428 l 586 426 l 351 426 l 272 428 l 274 325 l 274 0 q 199 -6 244 -6 q 126 0 154 -6 l 126 949 q 199 954 154 954 q 274 949 244 954 l 274 654 l 272 551 l 351 553 l 586 553 l 664 551 z "},"I":{"ha":408,"x_min":131,"x_max":278,"o":"m 131 0 l 131 949 q 203 954 158 954 q 278 949 249 954 l 278 0 q 203 -6 249 -6 q 131 0 158 -6 z "},"J":{"ha":622,"x_min":14,"x_max":514,"o":"m 69 156 q 224 110 146 110 q 334 160 301 110 q 367 325 367 210 l 367 949 q 440 954 396 954 q 514 949 485 954 l 514 346 q 503 202 514 261 q 463 92 492 143 q 231 -14 404 -14 q 14 44 108 -14 q 69 156 25 108 z "},"K":{"ha":828,"x_min":126,"x_max":806,"o":"m 806 39 q 706 -8 775 -8 q 645 12 665 -8 q 608 81 625 32 l 533 285 q 467 394 504 363 q 373 426 429 426 q 274 424 317 426 l 274 0 q 199 -6 244 -6 q 126 0 154 -6 l 126 949 q 199 954 154 954 q 274 949 244 954 l 274 550 l 351 553 q 381 561 371 553 q 404 592 392 569 l 582 893 q 619 940 601 926 q 674 953 636 953 q 756 949 711 953 l 765 936 l 556 581 q 500 511 529 536 q 602 458 565 499 q 668 340 639 418 l 743 139 q 806 39 771 67 z "},"L":{"ha":711,"x_min":125,"x_max":674,"o":"m 397 128 l 674 128 q 669 69 674 97 q 574 -1 657 -1 l 211 -1 q 149 23 172 -1 q 125 90 125 47 l 125 946 l 135 954 l 190 954 q 255 932 236 954 q 274 860 274 910 l 274 122 q 397 128 331 128 z "},"M":{"ha":1122,"x_min":103,"x_max":1019,"o":"m 103 1 l 176 949 q 274 954 210 954 q 369 949 338 954 l 501 514 q 557 293 538 401 l 565 293 q 619 514 575 361 l 751 949 q 849 954 788 954 q 946 949 910 954 l 1019 1 q 948 -7 989 -7 q 878 -1 907 -7 l 846 507 q 835 789 838 618 l 826 789 l 636 144 q 560 139 592 139 q 486 144 528 139 l 296 789 l 288 789 q 276 507 281 579 l 243 -1 q 174 -7 215 -7 q 103 1 132 -7 z "},"N":{"ha":944,"x_min":126,"x_max":818,"o":"m 810 954 l 818 947 l 818 1 q 729 -6 779 -6 q 640 0 679 -6 l 344 582 q 257 775 300 675 l 251 774 q 264 433 264 558 l 264 0 q 194 -6 231 -6 q 126 0 158 -6 l 126 947 q 215 954 165 954 q 303 949 264 954 l 596 367 q 647 253 615 325 q 688 165 679 182 l 693 167 q 682 517 682 344 l 682 863 q 699 933 682 913 q 761 954 717 954 l 810 954 z "},"O":{"ha":914,"x_min":68,"x_max":844,"o":"m 267 724 q 233 606 243 665 q 224 482 224 546 q 233 342 224 411 q 269 219 243 274 q 342 133 296 165 q 458 100 388 100 q 580 138 535 100 q 649 233 625 176 q 681 356 674 290 q 689 475 689 421 q 681 596 689 531 q 650 717 674 661 q 580 811 626 774 q 457 849 533 849 q 338 815 386 849 q 267 724 290 782 m 217 65 q 68 474 68 193 q 94 678 68 588 q 169 833 119 769 q 290 932 218 897 q 457 967 363 967 q 623 933 550 967 q 744 835 696 899 q 819 679 793 771 q 844 474 844 588 q 819 269 844 360 q 744 114 793 178 q 623 16 696 50 q 457 -18 550 -18 q 217 65 310 -18 z "},"P":{"ha":789,"x_min":126,"x_max":739,"o":"m 135 950 l 421 954 q 552 934 493 954 q 653 875 611 914 q 717 778 694 836 q 739 646 739 721 q 716 513 739 571 q 651 415 693 454 q 551 355 610 375 q 421 335 492 335 l 274 335 l 274 0 q 239 -4 258 -3 q 199 -6 219 -6 q 160 -4 179 -6 q 126 0 140 -3 l 126 940 l 135 950 m 274 451 l 415 453 q 495 469 463 453 q 547 511 528 485 q 576 572 567 538 q 585 644 585 607 q 576 718 585 683 q 547 779 567 753 q 495 821 528 806 q 417 836 463 836 q 333 836 368 836 q 274 838 297 836 l 274 451 z "},"Q":{"ha":914,"x_min":68,"x_max":836,"o":"m 629 -140 l 471 -18 l 457 -18 q 167 111 267 -18 q 68 475 68 240 q 92 681 68 589 q 165 835 117 772 q 285 933 213 899 q 451 967 357 967 q 619 933 547 967 q 739 836 690 899 q 812 684 788 774 q 836 483 836 594 q 822 321 836 396 q 782 188 808 246 q 717 88 756 129 q 629 29 678 47 l 660 7 q 715 -31 690 -17 q 760 -54 739 -46 q 799 -66 781 -62 q 836 -69 817 -69 q 803 -149 833 -118 q 728 -179 772 -179 q 629 -140 681 -179 m 451 849 q 222 475 222 849 q 451 103 222 103 q 682 475 682 103 q 451 849 682 849 z "},"R":{"ha":833,"x_min":126,"x_max":793,"o":"m 135 950 l 433 954 q 665 880 581 954 q 749 669 749 806 q 699 509 749 576 q 571 417 650 442 q 669 299 636 393 l 731 136 q 793 36 757 64 q 693 -10 763 -10 q 634 11 654 -10 q 596 81 614 32 l 526 268 q 476 353 506 324 q 386 382 446 382 l 272 382 l 272 0 q 199 -6 243 -6 q 126 0 154 -6 l 126 940 l 135 950 m 272 839 l 272 500 q 426 503 381 503 q 558 550 519 503 q 596 669 596 597 q 426 838 596 838 q 272 839 319 838 z "},"S":{"ha":772,"x_min":42,"x_max":715,"o":"m 42 86 q 104 200 47 154 q 383 106 249 106 q 513 142 465 106 q 561 236 561 178 q 435 386 561 332 l 271 457 q 81 697 81 539 q 104 803 81 754 q 169 890 128 853 q 270 947 211 928 q 400 967 329 967 q 689 894 546 967 q 635 779 688 828 q 397 844 501 844 q 276 808 322 844 q 231 721 231 771 q 259 641 231 669 q 346 589 288 613 l 507 519 q 663 412 611 475 q 715 261 715 349 q 628 59 715 136 q 365 -18 542 -18 q 42 86 189 -18 z "},"T":{"ha":683,"x_min":18,"x_max":671,"o":"m 497 824 l 417 825 l 417 0 q 342 -6 385 -6 q 268 0 300 -6 l 268 722 l 269 825 l 268 825 l 189 824 l 24 824 q 18 886 18 853 q 24 949 18 919 l 663 949 q 671 885 671 915 q 588 824 671 824 l 497 824 z "},"U":{"ha":929,"x_min":114,"x_max":815,"o":"m 815 949 l 815 333 q 721 73 815 164 q 464 -18 626 -18 q 208 72 303 -18 q 114 333 114 163 l 114 946 l 122 954 l 179 954 q 242 932 224 954 q 261 860 261 910 l 261 333 q 313 160 261 219 q 464 101 364 101 q 667 333 667 101 l 667 949 q 701 953 682 951 q 740 954 721 954 q 781 953 761 954 q 815 949 800 951 z "},"V":{"ha":799,"x_min":28,"x_max":775,"o":"m 417 132 l 638 949 q 703 954 664 954 q 768 946 742 954 l 775 935 l 500 -1 q 386 -7 428 -7 q 320 8 344 -7 q 283 65 296 22 l 28 936 q 119 958 78 958 q 200 886 179 958 l 343 385 q 404 146 376 267 q 417 132 408 132 z "},"W":{"ha":1181,"x_min":42,"x_max":1142,"o":"m 217 67 l 42 940 q 121 958 82 958 q 178 941 160 958 q 203 879 196 924 l 290 407 q 335 139 321 232 q 347 122 336 122 l 499 929 q 597 936 544 936 q 689 929 650 936 l 828 139 q 840 122 831 122 q 890 408 854 219 l 997 949 q 1064 954 1025 954 q 1135 946 1103 954 l 1142 936 l 943 1 q 831 -7 889 -7 q 750 8 772 -7 q 719 65 728 22 l 653 438 q 597 781 618 642 l 588 781 q 526 438 560 606 l 442 0 q 328 -7 382 -7 q 249 8 274 -7 q 217 67 225 22 z "},"X":{"ha":815,"x_min":25,"x_max":790,"o":"m 618 949 q 684 956 642 956 q 757 942 726 956 l 761 932 l 494 501 l 790 22 q 690 -10 743 -10 q 599 50 636 -10 l 397 375 l 171 0 q 103 -7 147 -7 q 29 7 60 -7 l 25 17 l 322 496 l 58 926 q 159 958 106 958 q 249 900 213 958 l 419 622 l 618 949 z "},"Y":{"ha":699,"x_min":13,"x_max":689,"o":"m 421 631 l 547 949 q 611 956 574 956 q 682 944 649 956 l 689 935 l 425 304 l 425 0 q 349 -6 393 -6 q 276 0 304 -6 l 276 307 l 13 932 q 97 958 60 958 q 153 944 135 958 q 185 894 171 929 l 294 628 q 353 454 322 558 l 360 454 q 421 631 375 510 z "},"Z":{"ha":781,"x_min":67,"x_max":715,"o":"m 86 157 l 436 683 q 546 831 450 704 l 542 835 q 325 824 481 824 l 101 824 q 96 877 96 846 q 107 949 96 908 l 679 949 q 700 851 700 878 q 681 794 700 824 l 332 272 q 224 124 300 224 l 228 119 q 394 128 315 128 l 539 128 q 703 154 650 128 q 715 82 715 117 q 613 0 715 0 l 85 0 q 67 99 67 69 q 86 157 67 128 z "},"[":{"ha":478,"x_min":138,"x_max":435,"o":"m 429 -197 l 147 -207 l 138 -199 l 138 1124 l 147 1132 l 429 1122 q 435 1081 435 1106 q 424 1018 435 1056 l 282 1014 l 282 -89 l 424 -93 q 435 -156 435 -131 q 429 -197 435 -181 z "},"\\":{"ha":586,"x_min":14,"x_max":576,"o":"m 453 -154 l 14 1011 q 138 1057 68 1053 l 576 -107 q 453 -154 524 -147 z "},"]":{"ha":478,"x_min":43,"x_max":339,"o":"m 329 -207 l 49 -197 q 43 -156 43 -181 q 54 -93 43 -131 l 196 -89 l 196 1014 l 54 1018 q 43 1081 43 1056 q 49 1122 43 1106 l 329 1132 l 339 1124 l 339 -199 l 329 -207 z "},"^":{"ha":736,"x_min":61,"x_max":675,"o":"m 446 900 l 675 425 q 606 418 650 418 q 533 425 563 418 l 419 669 q 372 786 404 706 l 364 786 q 317 669 332 706 l 203 425 q 130 418 174 418 q 61 425 86 418 l 290 900 q 368 907 318 907 q 446 900 418 907 z "},"_":{"ha":736,"x_min":-7,"x_max":742,"o":"m 736 -215 l 0 -215 q -7 -160 -7 -194 q 0 -103 -7 -125 l 736 -103 q 742 -160 742 -126 q 736 -215 742 -193 z "},"`":{"ha":553,"x_min":89,"x_max":389,"o":"m 189 1026 l 389 806 q 326 747 369 760 l 89 932 q 128 989 100 963 q 189 1026 157 1015 z "},"a":{"ha":704,"x_min":60,"x_max":640,"o":"m 640 64 q 586 -10 624 14 q 475 76 504 6 q 272 -18 376 -18 q 180 -1 219 -18 q 113 44 140 15 q 73 109 86 72 q 60 186 60 146 q 133 358 60 300 q 326 417 206 417 q 394 415 361 417 q 460 407 428 413 l 460 461 q 346 585 460 585 q 128 532 267 585 q 86 636 88 567 q 374 700 228 700 q 542 642 482 700 q 601 468 601 585 l 601 183 q 640 64 601 97 m 296 96 q 460 179 385 96 l 460 311 q 401 315 432 314 q 338 317 371 317 q 238 285 274 317 q 203 203 203 254 q 228 124 203 153 q 296 96 253 96 z "},"b":{"ha":733,"x_min":108,"x_max":672,"o":"m 108 35 l 108 1013 l 117 1021 l 171 1021 q 231 999 214 1021 q 249 929 249 978 l 249 626 q 440 697 332 697 q 612 601 551 697 q 672 335 672 506 q 649 190 672 254 q 583 81 625 126 q 485 13 542 36 q 364 -11 429 -11 q 108 35 231 -11 m 400 578 q 249 499 317 578 l 249 113 q 368 96 300 96 q 482 161 438 96 q 526 346 526 226 q 492 522 526 467 q 400 578 458 578 z "},"c":{"ha":654,"x_min":61,"x_max":603,"o":"m 471 421 l 471 436 q 349 593 471 593 q 246 529 282 593 q 210 339 210 465 q 367 100 210 100 q 535 169 444 100 q 572 133 554 158 q 596 85 590 108 q 347 -18 493 -18 q 220 9 274 -18 q 131 85 167 36 q 78 201 96 133 q 61 351 61 269 q 85 502 61 436 q 148 613 108 568 q 240 681 188 657 q 350 704 292 704 q 456 686 410 704 q 535 639 503 668 q 585 572 568 610 q 603 494 603 533 q 531 415 603 415 q 471 421 494 415 z "},"d":{"ha":736,"x_min":61,"x_max":664,"o":"m 328 697 q 485 651 403 697 l 485 1013 l 494 1021 l 549 1021 q 608 1000 592 1021 q 625 929 625 979 l 625 196 q 664 64 625 99 q 643 22 658 44 q 611 -10 628 0 q 501 76 532 6 q 301 -18 419 -18 q 122 77 183 -18 q 61 342 61 172 q 83 492 61 426 q 140 604 104 558 q 225 674 176 650 q 328 697 274 697 m 333 101 q 485 189 424 101 l 485 533 q 350 583 407 583 q 247 521 288 583 q 207 336 207 458 q 243 158 207 215 q 333 101 279 101 z "},"e":{"ha":694,"x_min":61,"x_max":626,"o":"m 617 297 l 208 297 q 249 150 213 201 q 374 99 286 99 q 463 111 415 99 q 563 151 511 124 q 608 60 597 119 q 347 -18 497 -18 q 214 10 268 -18 q 126 86 160 38 q 76 202 92 135 q 61 347 61 269 q 81 490 61 424 q 136 603 100 556 q 226 677 172 650 q 346 704 279 704 q 465 682 413 704 q 553 620 517 660 q 608 526 589 581 q 626 407 626 471 q 624 352 626 379 q 617 297 622 325 m 350 597 q 208 401 218 597 l 489 401 l 489 419 q 455 548 489 499 q 350 597 421 597 z "},"f":{"ha":463,"x_min":15,"x_max":517,"o":"m 140 0 l 140 583 l 21 581 q 17 606 18 592 q 15 633 15 619 q 21 688 15 665 l 133 686 q 125 810 125 771 q 140 897 125 857 q 182 965 154 936 q 249 1010 210 994 q 336 1026 288 1026 q 517 994 433 1026 q 483 897 517 932 q 423 913 451 907 q 371 918 394 918 q 287 887 313 918 q 261 793 261 856 q 264 743 261 769 q 271 685 267 717 l 467 688 q 471 662 469 675 q 472 633 472 649 q 471 606 472 619 q 467 581 469 592 l 281 583 l 281 0 q 247 -4 265 -3 q 210 -6 229 -6 q 172 -4 190 -6 q 140 0 154 -3 z "},"g":{"ha":733,"x_min":61,"x_max":665,"o":"m 517 632 q 613 696 547 681 q 645 663 629 685 q 665 622 661 640 q 626 490 626 585 l 626 79 q 609 -101 626 -28 q 556 -220 592 -175 q 464 -285 519 -265 q 331 -306 408 -306 q 90 -260 207 -306 q 128 -151 92 -193 q 317 -194 215 -194 q 451 -144 415 -194 q 488 -1 488 -93 l 488 63 q 294 -12 406 -12 q 123 83 185 -12 q 61 347 61 179 q 82 498 61 432 q 140 610 103 564 q 226 680 178 656 q 328 704 274 704 q 517 632 439 704 m 488 189 l 488 526 q 351 589 418 589 q 246 526 285 589 q 207 342 207 464 q 242 164 207 221 q 332 107 276 107 q 488 189 418 107 z "},"h":{"ha":756,"x_min":108,"x_max":675,"o":"m 653 469 l 653 147 q 675 21 653 64 q 590 -10 636 -10 q 527 13 544 -10 q 510 82 510 36 l 510 435 q 491 538 510 507 q 426 568 472 568 q 333 544 381 568 q 249 482 285 521 l 249 0 q 217 -4 235 -3 q 179 -6 199 -6 q 141 -4 160 -6 q 108 0 122 -3 l 108 1013 l 117 1021 l 172 1021 q 232 1000 215 1021 q 249 929 249 979 l 249 606 q 468 697 350 697 q 607 635 561 697 q 653 469 653 574 z "},"i":{"ha":376,"x_min":44,"x_max":271,"o":"m 271 567 l 271 0 q 199 -6 244 -6 q 128 0 154 -6 l 128 508 q 114 564 128 547 q 67 581 100 581 l 51 581 q 44 632 44 611 q 51 685 44 653 q 139 690 97 690 l 158 690 q 241 657 211 690 q 271 567 271 624 m 97 815 q 85 876 85 840 q 106 944 85 933 q 175 956 126 954 q 246 942 231 954 q 263 876 261 929 q 246 813 261 826 q 175 797 231 799 q 97 815 121 797 z "},"j":{"ha":386,"x_min":38,"x_max":279,"o":"m 279 567 l 279 25 q 267 -131 279 -72 q 229 -225 254 -190 q 167 -276 204 -260 q 79 -304 129 -292 q 38 -217 43 -271 q 86 -187 67 -203 q 117 -152 106 -172 q 133 -106 128 -132 q 138 -44 138 -81 l 138 508 q 124 564 138 547 q 78 581 111 581 l 50 581 q 44 608 46 596 q 43 632 43 619 q 44 656 43 643 q 50 685 46 668 q 100 689 75 688 q 151 690 125 690 l 169 690 q 250 658 221 690 q 279 567 279 625 m 106 815 q 93 876 93 840 q 108 940 93 926 q 183 956 122 953 q 249 945 231 951 q 271 876 267 939 q 253 810 267 818 q 183 797 239 801 q 106 815 129 797 z "},"k":{"ha":697,"x_min":108,"x_max":674,"o":"m 560 258 l 607 143 q 674 35 639 58 q 578 -10 635 -10 q 522 9 542 -10 q 486 71 503 28 l 431 207 q 384 280 408 261 q 326 299 360 299 q 249 296 293 299 l 249 0 q 179 -6 222 -6 q 108 0 136 -6 l 108 1013 l 117 1021 l 172 1021 q 232 1000 215 1021 q 249 929 249 979 l 249 415 l 296 418 q 329 438 318 418 l 451 629 q 540 690 486 690 q 621 689 594 690 l 629 678 l 478 438 q 432 383 457 404 q 560 258 518 361 z "},"l":{"ha":408,"x_min":106,"x_max":365,"o":"m 301 107 l 353 107 q 365 46 365 72 q 361 4 365 19 q 243 -6 306 -6 q 106 138 106 -6 l 106 1013 l 115 1021 l 169 1021 q 230 999 213 1021 q 247 929 247 978 l 247 169 q 301 107 247 107 z "},"m":{"ha":1107,"x_min":108,"x_max":1028,"o":"m 485 435 q 465 537 485 506 q 401 568 444 568 q 251 483 326 568 l 251 0 q 181 -6 228 -6 q 140 -4 158 -6 q 108 0 122 -3 l 108 682 l 117 692 l 171 692 q 250 604 246 692 q 454 699 349 699 q 606 596 561 699 q 826 699 719 699 q 960 638 914 699 q 1006 481 1006 576 l 1006 147 q 1028 21 1006 61 q 938 -10 989 -10 q 861 82 861 -10 l 861 436 q 841 538 861 507 q 778 568 821 568 q 628 483 703 568 l 628 0 q 595 -4 614 -3 q 556 -6 576 -6 q 517 -4 536 -6 q 485 0 497 -3 l 485 435 z "},"n":{"ha":758,"x_min":108,"x_max":679,"o":"m 656 471 l 656 147 q 679 21 656 65 q 594 -10 643 -10 q 530 13 547 -10 q 513 82 513 36 l 513 435 q 494 538 513 507 q 429 568 475 568 q 335 545 383 568 q 251 482 288 522 l 251 0 q 181 -6 228 -6 q 140 -4 158 -6 q 108 0 122 -3 l 108 683 l 117 692 l 171 692 q 250 606 246 692 q 471 699 351 699 q 610 637 564 699 q 656 471 656 575 z "},"o":{"ha":722,"x_min":61,"x_max":661,"o":"m 563 58 q 361 -18 486 -18 q 233 8 289 -18 q 140 81 178 33 q 81 195 101 129 q 61 343 61 261 q 81 490 61 424 q 140 605 101 557 q 233 678 178 653 q 361 704 289 704 q 489 678 433 704 q 583 605 544 653 q 641 490 621 557 q 661 343 661 424 q 563 58 661 157 m 361 594 q 210 343 210 594 q 361 92 210 92 q 514 343 514 92 q 361 594 514 594 z "},"p":{"ha":736,"x_min":108,"x_max":675,"o":"m 408 -12 q 250 33 331 -12 l 250 -207 q 233 -277 250 -256 q 172 -299 215 -299 l 117 -299 l 108 -290 l 108 683 l 117 692 l 161 692 q 246 621 231 692 q 439 704 326 704 q 539 679 494 704 q 613 607 583 654 q 659 494 643 560 q 675 344 675 428 q 654 194 675 261 q 597 82 633 128 q 511 12 560 36 q 408 -12 463 -12 m 403 583 q 250 493 313 583 l 250 153 q 320 116 286 129 q 385 103 354 103 q 490 167 450 103 q 529 349 529 231 q 493 526 529 469 q 403 583 457 583 z "},"q":{"ha":735,"x_min":61,"x_max":665,"o":"m 486 -207 l 486 60 q 294 -12 406 -12 q 123 83 185 -12 q 61 347 61 179 q 83 498 61 432 q 141 610 104 564 q 226 680 178 656 q 328 704 274 704 q 517 633 435 704 q 611 696 550 681 q 644 664 628 686 q 665 622 660 642 q 626 490 626 588 l 626 -290 l 618 -299 l 564 -299 q 503 -278 519 -299 q 486 -207 486 -257 m 332 107 q 486 188 418 107 l 486 528 q 351 589 414 589 q 247 527 288 589 q 207 343 207 465 q 242 165 207 222 q 332 107 278 107 z "},"r":{"ha":511,"x_min":69,"x_max":504,"o":"m 69 619 q 122 696 83 671 q 249 572 218 675 q 431 696 304 696 q 504 688 464 696 q 469 551 504 607 q 413 558 457 556 q 264 453 318 558 l 264 0 q 192 -6 238 -6 q 121 0 147 -6 l 121 476 q 69 619 121 571 z "},"s":{"ha":608,"x_min":43,"x_max":558,"o":"m 43 51 q 58 105 44 75 q 90 151 72 135 q 271 90 201 90 q 376 114 342 90 q 410 176 410 138 q 322 271 410 238 l 244 300 q 68 499 68 367 q 137 649 68 594 q 317 704 206 704 q 540 654 429 704 q 528 596 540 626 q 497 549 517 565 q 313 594 399 594 q 240 572 267 594 q 213 517 213 550 q 233 465 213 483 q 299 429 253 447 l 382 397 q 558 189 558 329 q 485 38 558 93 q 285 -18 411 -18 q 43 51 158 -18 z "},"t":{"ha":486,"x_min":26,"x_max":453,"o":"m 446 688 q 453 633 453 664 q 446 581 453 603 l 275 583 l 275 168 q 332 107 275 107 l 428 107 q 439 45 439 76 q 436 4 439 14 q 281 -6 356 -6 q 135 138 135 -6 l 135 582 l 32 581 q 26 633 26 604 q 32 688 26 661 l 135 685 l 135 807 q 151 878 135 857 q 211 899 168 899 l 265 899 l 275 889 l 275 683 l 446 688 z "},"u":{"ha":760,"x_min":79,"x_max":689,"o":"m 103 215 l 103 539 q 79 664 103 622 q 169 694 114 694 q 246 604 246 694 l 246 250 q 264 147 246 178 q 328 117 282 117 q 421 140 374 117 q 506 201 468 163 l 506 686 q 576 692 544 692 q 650 686 608 692 l 650 194 q 689 63 650 97 q 635 -10 674 13 q 518 90 547 6 q 286 -12 410 -12 q 149 50 194 -12 q 103 215 103 113 z "},"v":{"ha":632,"x_min":8,"x_max":622,"o":"m 328 117 l 492 686 q 553 692 518 692 q 618 681 589 692 l 622 675 q 408 0 518 325 q 314 -7 368 -7 q 238 8 260 -7 q 200 72 217 24 l 8 675 q 90 696 54 696 q 168 635 153 696 l 261 329 q 315 128 288 246 q 328 117 318 117 z "},"w":{"ha":1004,"x_min":31,"x_max":976,"o":"m 175 72 l 31 676 q 115 696 74 696 q 182 638 171 696 l 244 349 q 290 118 263 268 q 301 107 293 107 l 418 682 q 505 689 446 689 q 589 682 564 689 l 703 118 q 714 107 704 107 q 764 349 733 213 l 839 686 q 905 692 861 692 q 972 681 949 692 l 976 674 l 808 -1 q 712 -7 769 -7 q 631 8 654 -7 q 600 71 608 24 l 560 264 l 507 553 l 500 553 q 443 265 478 428 l 388 0 q 283 -7 335 -7 q 209 9 232 -7 q 175 72 186 25 z "},"x":{"ha":639,"x_min":21,"x_max":621,"o":"m 460 686 q 521 692 485 692 q 589 682 557 692 l 593 671 l 397 364 l 621 22 q 524 -11 569 -11 q 447 32 478 -11 l 308 244 l 158 -1 q 99 -7 142 -7 q 25 4 56 -7 l 21 15 l 239 354 l 39 664 q 131 697 83 697 q 210 654 179 697 l 328 471 l 460 686 z "},"y":{"ha":650,"x_min":7,"x_max":633,"o":"m 633 674 l 450 22 q 398 -127 425 -65 q 335 -228 371 -189 q 252 -285 300 -267 q 140 -303 204 -303 q 107 -301 129 -303 q 63 -297 85 -300 q 24 -288 40 -293 q 7 -275 7 -283 q 15 -222 7 -251 q 39 -178 24 -193 q 147 -196 85 -196 q 244 -153 207 -196 q 308 -24 282 -111 l 313 -7 q 243 10 268 -6 q 206 68 218 26 l 22 675 q 110 696 72 696 q 182 632 164 696 l 276 313 q 296 240 283 290 q 328 108 308 189 q 340 99 329 99 l 493 686 q 519 690 504 689 q 551 692 533 692 q 591 690 571 692 q 629 682 611 688 l 633 674 z "},"z":{"ha":619,"x_min":49,"x_max":572,"o":"m 71 135 l 297 443 q 407 578 336 496 l 403 583 q 219 575 344 575 l 74 575 q 68 623 68 593 q 76 686 68 653 l 542 686 q 563 602 563 624 q 544 553 563 581 l 318 246 q 211 111 290 207 l 215 106 q 343 111 275 111 l 410 111 q 558 131 515 111 q 572 68 572 99 q 482 0 572 0 l 68 0 q 49 82 49 58 q 71 135 49 106 z "},"{":{"ha":481,"x_min":53,"x_max":472,"o":"m 58 500 q 140 559 108 515 q 172 663 172 603 l 172 899 q 226 1053 172 994 q 369 1125 281 1111 l 442 1138 q 465 1090 457 1121 q 467 1039 472 1060 l 399 1017 q 318 897 318 992 l 318 665 q 287 540 318 599 q 203 457 256 482 l 203 446 q 287 364 256 422 q 318 239 318 306 l 318 6 q 399 -114 318 -87 l 467 -135 q 465 -187 472 -157 q 442 -235 457 -218 l 369 -222 q 226 -149 279 -207 q 172 4 172 -92 l 172 242 q 140 345 172 301 q 58 404 108 389 q 53 452 53 422 q 58 500 53 482 z "},"|":{"ha":354,"x_min":110,"x_max":244,"o":"m 110 -196 l 110 1075 q 177 1082 136 1082 q 244 1075 218 1082 l 244 -196 q 177 -201 217 -201 q 110 -196 138 -201 z "},"}":{"ha":481,"x_min":8,"x_max":429,"o":"m 422 500 q 429 452 429 482 q 422 404 429 422 q 340 344 372 389 q 308 242 308 300 l 308 4 q 255 -149 308 -92 q 111 -222 201 -207 l 40 -235 q 17 -187 25 -218 q 14 -135 8 -156 l 83 -114 q 163 6 163 -87 l 163 239 q 194 364 163 306 q 278 446 226 422 l 278 457 q 194 540 226 482 q 163 665 163 599 l 163 897 q 83 1017 163 993 l 14 1039 q 17 1090 8 1060 q 40 1138 25 1121 l 111 1125 q 254 1053 200 1111 q 308 899 308 994 l 308 663 q 340 559 308 603 q 422 500 372 515 z "},"~":{"ha":814,"x_min":56,"x_max":758,"o":"m 383 494 l 492 444 q 564 428 535 428 q 608 438 588 426 q 647 472 628 450 l 674 503 q 724 485 699 501 q 758 447 750 469 l 740 415 q 549 293 672 293 q 492 300 522 294 q 431 321 463 306 l 321 371 q 288 383 304 378 q 253 388 271 388 q 167 343 207 389 l 140 313 q 90 331 115 315 q 56 368 64 346 l 74 400 q 265 522 142 522 q 383 494 315 522 z "},"¡":{"ha":400,"x_min":111,"x_max":293,"o":"m 258 415 l 275 -232 q 122 -274 218 -274 l 113 -262 l 147 415 q 203 422 171 422 q 258 415 233 422 m 281 550 q 201 533 253 533 q 159 536 176 533 q 131 547 142 539 q 115 572 119 556 q 111 614 111 588 q 114 650 111 632 q 124 681 117 668 q 159 693 139 689 q 201 697 179 697 q 238 696 222 697 q 268 687 254 694 q 288 662 282 679 q 293 614 293 644 q 281 550 293 568 z "},"¢":{"ha":650,"x_min":58,"x_max":597,"o":"m 285 -43 l 285 94 q 182 136 225 104 q 112 217 139 168 q 72 327 85 265 q 58 460 58 389 q 123 696 58 607 q 289 807 188 785 l 289 946 q 344 950 310 950 q 404 946 379 950 l 404 810 q 486 782 450 803 q 547 733 522 761 q 584 673 571 706 q 597 610 597 640 q 521 525 597 525 q 494 527 508 525 q 465 532 481 529 l 465 551 q 437 659 465 615 q 343 703 408 703 q 208 456 208 703 q 364 210 208 210 q 529 281 446 210 q 593 200 576 251 q 400 94 518 115 l 400 -43 q 342 -47 376 -47 q 285 -43 306 -47 z "},"£":{"ha":735,"x_min":64,"x_max":683,"o":"m 299 479 l 554 481 q 554 371 571 426 q 319 372 397 371 q 229 119 319 246 l 233 115 q 428 122 361 122 l 683 122 q 681 69 683 89 q 585 -1 668 -1 l 94 -1 q 76 99 76 69 q 96 154 76 128 l 118 189 q 186 371 186 288 l 81 371 q 81 481 64 424 q 120 480 93 481 q 161 479 147 479 q 114 608 122 569 q 106 671 106 646 q 178 842 106 767 q 382 918 250 918 q 658 815 546 918 q 633 758 656 786 q 583 721 611 731 q 393 797 492 797 q 290 761 331 797 q 250 663 250 725 q 272 551 250 613 q 299 479 294 490 z "},"¤":{"ha":799,"x_min":44,"x_max":754,"o":"m 143 296 q 94 463 94 369 q 142 632 94 560 l 44 739 q 122 818 69 785 l 231 718 q 397 764 303 764 q 565 718 492 764 l 675 819 q 754 742 724 792 l 654 633 q 703 464 703 557 q 690 376 703 419 q 654 296 678 333 l 753 189 q 675 110 728 143 l 564 211 q 399 167 494 167 q 232 211 306 167 l 122 111 q 44 189 72 140 l 143 296 m 399 654 q 282 599 324 654 q 240 464 240 544 q 251 390 240 424 q 283 330 263 356 q 332 290 303 304 q 399 275 361 275 q 465 290 436 275 q 515 330 494 304 q 547 390 536 356 q 558 464 558 424 q 516 599 558 544 q 399 654 474 654 z "},"¥":{"ha":717,"x_min":33,"x_max":685,"o":"m 638 238 l 428 238 l 428 0 q 355 -6 396 -6 q 286 0 314 -6 l 286 238 l 76 238 q 69 286 69 268 q 76 336 69 304 l 279 336 l 231 446 l 76 446 q 69 494 69 476 q 76 544 69 513 l 186 544 l 33 886 q 129 914 83 914 q 199 858 175 914 l 301 610 q 358 449 324 560 l 367 449 q 426 611 400 554 l 549 903 q 611 911 581 911 q 679 901 642 911 l 685 893 l 528 544 l 638 544 q 643 494 643 518 q 638 446 643 469 l 483 446 l 435 336 l 638 336 q 643 285 643 310 q 638 238 643 261 z "},"¦":{"ha":346,"x_min":107,"x_max":240,"o":"m 107 -196 l 107 342 q 172 349 131 349 q 240 342 213 349 l 240 -196 q 172 -201 211 -201 q 107 -196 133 -201 m 107 538 l 107 1075 q 172 1082 131 1082 q 240 1075 213 1082 l 240 538 q 172 532 211 532 q 107 538 133 532 z "},"§":{"ha":674,"x_min":44,"x_max":632,"o":"m 632 422 q 485 217 632 297 q 581 57 581 150 q 508 -94 581 -37 q 311 -150 435 -150 q 92 -92 185 -150 q 105 -35 92 -65 q 138 10 118 -6 q 325 -40 239 -40 q 406 -18 376 -40 q 436 42 436 4 q 349 132 436 96 l 268 164 q 103 258 163 206 q 44 394 44 310 q 85 510 44 457 q 192 600 125 564 q 96 757 96 663 q 115 844 96 806 q 168 910 135 883 q 247 952 201 938 q 346 967 293 967 q 561 918 453 967 q 550 859 561 889 q 519 814 539 829 q 424 847 467 838 q 349 857 381 857 q 266 833 292 857 q 240 775 240 808 q 328 686 240 721 l 408 654 q 573 559 514 613 q 632 422 632 506 m 346 531 l 292 551 q 186 417 186 497 q 222 343 185 371 q 331 288 260 315 l 383 267 q 489 400 489 321 q 453 474 489 444 q 346 531 417 503 z "},"¨":{"ha":553,"x_min":69,"x_max":483,"o":"m 339 796 q 330 822 332 808 q 328 850 328 836 q 344 908 328 894 q 406 922 361 922 q 465 911 446 922 q 483 850 483 900 q 467 792 483 804 q 407 779 451 779 q 339 796 365 779 m 81 796 q 72 821 74 807 q 69 850 69 835 q 90 909 69 896 q 147 922 111 922 q 208 908 190 922 q 225 850 225 894 q 208 792 225 806 q 146 779 190 779 q 81 796 103 779 z "},"©":{"ha":1114,"x_min":56,"x_max":1058,"o":"m 200 117 q 56 474 56 261 q 94 671 56 579 q 201 830 133 763 q 360 936 268 897 q 556 975 451 975 q 753 936 661 975 q 913 829 844 897 q 1019 670 981 761 q 1058 474 1058 579 q 1019 276 1058 367 q 913 117 981 185 q 754 12 846 50 q 557 -26 663 -26 q 200 117 343 -26 m 285 757 q 176 474 176 640 q 205 319 176 392 q 284 193 233 247 q 404 107 335 139 q 557 75 474 75 q 710 107 640 75 q 831 193 779 139 q 910 319 882 247 q 939 474 939 392 q 910 628 939 556 q 830 756 881 701 q 709 842 779 810 q 557 874 639 874 q 285 757 393 874 m 656 528 l 656 542 q 632 623 656 588 q 556 658 608 658 q 471 611 501 658 q 440 475 440 564 q 474 341 440 388 q 571 294 508 294 q 638 308 603 294 q 710 351 674 322 q 761 282 746 333 q 668 222 725 246 q 556 199 611 199 q 451 219 496 199 q 377 276 407 239 q 332 366 347 314 q 317 481 317 418 q 336 595 317 544 q 389 681 356 646 q 466 733 422 715 q 558 751 510 751 q 645 737 607 751 q 710 698 683 722 q 752 644 738 674 q 767 586 767 615 q 703 521 767 521 q 656 528 679 521 z "},"ª":{"ha":589,"x_min":56,"x_max":526,"o":"m 526 475 q 508 440 524 458 q 475 411 493 421 q 385 476 411 421 q 225 406 307 406 q 152 419 183 406 q 99 453 121 432 q 67 504 78 475 q 56 567 56 533 q 113 702 56 658 q 267 746 171 746 q 308 744 282 746 q 369 740 333 743 l 369 779 q 288 868 369 868 q 113 829 211 868 q 78 917 78 865 q 294 967 196 967 q 492 783 492 967 l 492 569 q 526 475 492 500 m 249 500 q 369 560 310 500 l 369 656 q 320 660 342 658 q 279 661 299 661 q 204 640 232 661 q 176 578 176 618 q 194 524 176 549 q 240 500 213 500 l 249 500 z "},"«":{"ha":775,"x_min":46,"x_max":725,"o":"m 718 581 l 525 357 l 725 126 q 692 81 717 103 q 643 51 668 58 l 369 308 q 361 353 361 326 q 369 400 361 381 l 638 656 q 686 626 663 649 q 718 581 710 604 m 403 581 l 210 357 l 410 126 q 377 81 401 103 q 328 51 353 58 l 54 308 q 46 354 46 328 q 54 400 46 381 l 322 656 q 371 626 347 649 q 403 581 394 604 z "},"¬":{"ha":736,"x_min":65,"x_max":657,"o":"m 526 356 l 460 354 l 71 354 q 65 414 65 378 q 71 478 65 450 l 649 478 l 657 468 l 657 160 q 594 154 631 154 q 525 160 557 154 l 525 290 l 526 356 z "},"­":{"ha":486,"x_min":64,"x_max":422,"o":"m 415 308 l 71 308 q 64 370 64 332 q 71 432 64 408 l 415 432 q 422 369 422 407 q 415 308 422 332 z "},"®":{"ha":824,"x_min":47,"x_max":775,"o":"m 153 410 q 47 668 47 515 q 74 810 47 743 q 152 926 101 876 q 269 1003 203 975 q 411 1032 335 1032 q 554 1003 486 1032 q 672 926 622 975 q 748 810 721 876 q 775 668 775 743 q 747 526 775 592 q 669 410 718 460 q 553 333 619 361 q 411 304 486 304 q 153 410 258 304 m 219 864 q 143 668 143 783 q 163 561 143 611 q 219 474 183 511 q 304 414 256 436 q 411 392 353 392 q 517 414 468 392 q 603 474 567 436 q 660 561 639 511 q 681 668 681 611 q 660 774 681 724 q 605 863 639 825 q 519 924 571 901 q 411 946 468 946 q 219 864 297 946 m 553 744 q 483 653 553 676 q 529 599 506 644 l 547 563 q 578 524 561 536 q 525 492 558 492 q 468 535 492 490 l 433 599 q 392 626 418 626 l 361 626 l 361 499 q 319 492 338 492 q 276 499 300 492 l 276 842 l 281 846 q 362 848 325 847 q 428 849 399 849 q 519 820 486 849 q 553 744 553 792 m 361 783 l 361 692 q 403 694 383 694 q 436 698 422 694 q 458 710 450 701 q 465 738 465 718 q 414 783 465 783 l 361 783 z "},"¯":{"ha":553,"x_min":75,"x_max":478,"o":"m 472 799 l 82 799 q 75 856 75 822 q 82 914 75 889 l 472 914 q 478 856 478 888 q 472 799 478 825 z "},"°":{"ha":454,"x_min":25,"x_max":429,"o":"m 226 525 q 147 540 183 525 q 83 583 110 556 q 40 647 56 610 q 25 728 25 683 q 41 810 25 772 q 84 876 57 849 q 148 918 111 903 q 226 933 185 933 q 307 917 269 933 q 372 874 344 901 q 414 809 399 847 q 429 728 429 771 q 414 648 429 685 q 372 584 399 611 q 308 541 344 557 q 226 525 271 525 m 160 806 q 141 770 147 790 q 135 729 135 750 q 159 653 135 683 q 226 622 183 622 q 295 653 271 622 q 319 728 319 683 q 294 804 319 774 q 226 835 268 835 q 190 828 207 835 q 160 806 172 821 z "},"±":{"ha":736,"x_min":88,"x_max":649,"o":"m 304 536 l 303 606 l 303 747 q 369 753 331 753 q 433 747 407 753 l 433 606 l 432 536 l 497 538 l 643 538 q 649 478 649 510 q 643 421 649 447 l 497 421 l 432 422 l 433 354 l 433 211 q 369 206 407 206 q 303 211 331 206 l 303 354 l 304 422 l 239 421 l 93 421 q 88 478 88 447 q 93 538 88 510 l 239 538 l 304 536 m 643 0 l 93 0 q 88 59 88 28 q 93 119 88 90 l 643 119 q 649 59 649 90 q 643 0 649 28 z "},"²":{"ha":583,"x_min":76,"x_max":490,"o":"m 490 581 q 476 495 490 521 q 419 469 463 469 l 117 469 q 76 544 76 522 q 182 706 76 618 l 283 789 q 329 838 314 814 q 344 890 344 863 q 324 943 344 922 q 271 964 303 964 q 178 886 210 964 q 124 901 153 889 q 85 929 96 914 q 156 1033 104 992 q 288 1074 208 1074 q 363 1059 328 1074 q 422 1021 397 1044 q 461 967 447 997 q 475 903 475 936 q 447 791 475 835 q 361 703 419 747 l 283 642 q 234 601 254 618 q 207 569 214 585 q 272 578 242 575 q 325 581 301 581 l 490 581 z "},"³":{"ha":583,"x_min":71,"x_max":486,"o":"m 439 944 l 358 865 q 318 835 343 850 q 438 787 389 835 q 486 651 486 739 q 469 574 486 608 q 420 515 451 539 q 346 477 389 490 q 251 464 303 464 q 71 525 149 464 q 119 610 79 574 q 189 574 156 585 q 250 563 222 563 q 330 591 300 563 q 360 658 360 619 q 331 732 360 707 q 265 757 303 757 q 234 753 249 757 q 208 744 219 750 q 178 770 193 751 q 160 810 164 789 l 269 919 q 324 964 296 946 l 321 968 q 278 963 306 965 q 211 961 251 961 l 100 961 q 94 983 96 971 q 93 1010 93 996 q 101 1064 93 1040 l 440 1064 q 457 1024 451 1040 q 463 993 463 1007 q 439 944 463 965 z "},"´":{"ha":553,"x_min":171,"x_max":472,"o":"m 171 806 l 371 1026 q 432 989 403 1015 q 472 932 461 963 l 235 747 q 197 769 215 753 q 171 806 179 786 z "},"¶":{"ha":932,"x_min":58,"x_max":900,"o":"m 399 83 l 399 349 l 372 349 q 244 369 301 349 q 145 428 186 389 q 81 524 104 467 q 58 656 58 581 q 81 787 58 731 q 146 881 104 843 q 247 937 188 918 q 378 956 306 956 q 435 954 396 956 q 536 950 474 953 l 544 942 l 544 108 q 478 -147 544 -78 q 278 -217 413 -217 q 97 -183 182 -217 q 132 -74 97 -117 q 208 -95 172 -87 q 275 -103 244 -103 q 367 -62 336 -103 q 399 83 399 -22 m 635 -185 l 635 940 l 643 949 l 893 949 q 900 885 900 924 q 893 822 900 846 l 839 822 q 806 822 819 822 q 782 824 792 822 l 782 -185 q 746 -189 765 -187 q 707 -190 726 -190 q 668 -189 686 -190 q 635 -185 650 -187 z "},"·":{"ha":424,"x_min":119,"x_max":304,"o":"m 132 463 q 213 482 164 482 q 281 470 258 482 q 304 394 304 458 q 286 322 304 338 q 214 307 268 307 q 171 310 189 307 q 140 321 153 313 q 124 347 128 329 q 119 394 119 365 q 132 463 119 439 z "},"¸":{"ha":553,"x_min":157,"x_max":433,"o":"m 201 -103 q 219 -47 211 -72 q 238 0 228 -21 l 328 0 q 313 -32 318 -19 q 304 -51 307 -44 q 398 -87 363 -54 q 433 -176 433 -121 q 420 -230 433 -206 q 385 -272 407 -254 q 333 -299 363 -289 q 269 -310 303 -310 q 157 -282 201 -310 q 186 -210 158 -246 q 220 -225 203 -221 q 253 -229 238 -229 q 299 -216 281 -229 q 318 -182 318 -203 q 301 -135 318 -149 q 258 -122 283 -122 q 226 -128 239 -122 q 201 -103 210 -122 z "},"¹":{"ha":583,"x_min":82,"x_max":501,"o":"m 82 872 q 195 957 153 913 q 265 1063 238 1001 q 322 1069 292 1069 q 381 1063 351 1069 l 381 578 l 496 578 q 501 526 501 557 q 496 472 501 496 l 119 472 q 114 528 114 499 q 119 578 114 557 l 261 578 l 261 799 q 263 845 261 811 q 265 889 265 879 q 136 794 225 833 q 82 872 92 817 z "},"º":{"ha":574,"x_min":50,"x_max":524,"o":"m 446 910 q 524 685 524 825 q 509 574 524 625 q 465 486 494 524 q 390 427 435 449 q 286 406 346 406 q 182 427 226 406 q 108 486 138 449 q 65 574 79 524 q 50 685 50 625 q 64 796 50 744 q 107 885 78 847 q 181 945 136 924 q 286 967 225 967 q 446 910 385 967 m 174 688 q 288 503 174 503 q 399 686 399 503 q 288 871 399 871 q 201 819 228 871 q 174 688 174 768 z "},"»":{"ha":775,"x_min":50,"x_max":740,"o":"m 58 128 l 250 351 l 50 581 q 83 626 58 603 q 132 656 108 649 l 407 399 q 407 308 425 353 l 138 51 q 90 81 114 58 q 58 128 67 104 m 374 128 l 565 351 l 365 581 q 399 626 374 603 q 447 656 424 649 l 722 399 q 722 308 740 353 l 453 51 q 406 81 429 58 q 374 128 382 104 z "},"¼":{"ha":1314,"x_min":50,"x_max":1258,"o":"m 50 760 q 163 844 121 800 q 233 950 206 889 q 290 957 260 957 q 349 950 319 957 l 349 465 l 464 465 q 469 414 469 444 q 464 360 469 383 l 88 360 q 82 415 82 386 q 88 465 82 444 l 229 465 l 229 686 q 231 733 229 699 q 233 776 233 767 q 104 682 193 721 q 50 760 60 704 m 375 0 l 897 949 q 972 956 925 957 q 1039 949 1018 956 l 515 0 q 441 -8 488 -8 q 375 0 394 -7 m 1171 288 l 1169 217 l 1254 217 q 1258 167 1258 197 q 1249 114 1258 138 l 1169 114 l 1169 6 q 1113 0 1147 0 q 1051 6 1078 0 l 1051 64 l 1053 114 l 996 113 l 831 113 q 803 183 803 157 q 824 250 803 208 l 986 601 q 1050 597 1015 604 q 1103 574 1085 589 l 997 346 q 926 217 953 251 l 929 214 q 1028 217 964 217 l 1053 217 q 1051 250 1051 228 l 1051 296 q 1074 360 1051 336 q 1132 383 1096 383 l 1167 383 l 1171 379 l 1171 288 z "},"½":{"ha":1314,"x_min":50,"x_max":1246,"o":"m 50 760 q 163 844 121 800 q 233 950 206 889 q 290 957 260 957 q 349 950 319 957 l 349 465 l 464 465 q 469 414 469 444 q 464 360 469 383 l 88 360 q 82 415 82 386 q 88 465 82 444 l 229 465 l 229 686 q 231 733 229 699 q 233 776 233 767 q 104 682 193 721 q 50 760 60 704 m 354 0 l 876 949 q 951 956 904 957 q 1018 949 997 956 l 494 0 q 420 -8 467 -8 q 354 0 374 -7 m 1246 113 q 1232 27 1246 53 q 1175 1 1218 1 l 872 1 q 832 76 832 54 q 938 238 832 150 l 1039 321 q 1085 370 1069 346 q 1100 422 1100 394 q 1079 475 1100 454 q 1026 496 1058 496 q 933 418 965 496 q 880 433 908 421 q 840 461 851 446 q 912 565 860 524 q 1043 606 964 606 q 1118 591 1083 606 q 1178 553 1153 576 q 1217 499 1203 529 q 1231 435 1231 468 q 1203 323 1231 367 q 1117 235 1175 279 l 1039 174 q 990 133 1010 150 q 963 101 969 117 q 1027 110 997 107 q 1081 113 1057 113 l 1246 113 z "},"¾":{"ha":1314,"x_min":71,"x_max":1251,"o":"m 439 833 l 358 754 q 318 724 343 739 q 438 676 389 724 q 486 540 486 628 q 469 463 486 497 q 420 403 451 428 q 346 366 389 379 q 251 353 303 353 q 71 414 149 353 q 119 499 79 463 q 189 463 156 474 q 250 451 222 451 q 330 480 300 451 q 360 547 360 508 q 331 621 360 596 q 265 646 303 646 q 234 642 249 646 q 208 633 219 639 q 178 659 193 640 q 160 699 164 678 l 269 808 q 324 853 296 835 l 321 857 q 278 852 306 854 q 211 850 251 850 l 100 850 q 94 872 96 860 q 93 899 93 885 q 101 953 93 929 l 440 953 q 457 913 451 929 q 463 882 463 896 q 439 833 463 854 m 354 0 l 876 949 q 951 956 904 957 q 1018 949 997 956 l 494 0 q 420 -8 467 -8 q 354 0 374 -7 m 1164 288 l 1163 217 l 1247 217 q 1251 167 1251 197 q 1242 114 1251 138 l 1163 114 l 1163 6 q 1106 0 1140 0 q 1044 6 1071 0 l 1044 64 l 1046 114 l 989 113 l 824 113 q 796 183 796 157 q 817 250 796 208 l 979 601 q 1043 597 1008 604 q 1096 574 1078 589 l 990 346 q 919 217 946 251 l 922 214 q 1021 217 957 217 l 1046 217 q 1044 250 1044 228 l 1044 296 q 1067 360 1044 336 q 1125 383 1089 383 l 1160 383 l 1164 379 l 1164 288 z "},"¿":{"ha":550,"x_min":15,"x_max":539,"o":"m 539 -212 q 281 -283 407 -283 q 85 -219 154 -283 q 15 -46 15 -154 q 197 224 15 121 l 283 272 l 294 413 q 319 419 304 417 q 350 421 335 421 q 406 413 385 421 l 414 206 l 401 190 l 333 157 q 208 64 246 114 q 169 -37 169 14 q 206 -122 169 -87 q 310 -156 243 -156 q 390 -144 346 -156 q 486 -104 435 -132 q 522 -153 506 -121 q 539 -212 538 -185 m 428 550 q 347 533 399 533 q 308 535 325 533 q 280 545 292 538 q 263 569 268 553 q 258 614 258 585 q 264 662 258 644 q 282 685 269 679 q 311 694 294 692 q 347 697 328 697 q 383 696 367 697 q 415 687 400 694 q 434 663 429 679 q 439 614 439 646 q 428 550 439 569 z "},"À":{"ha":849,"x_min":28,"x_max":821,"o":"m 596 231 l 513 229 l 322 229 l 242 231 l 168 -1 q 106 -7 144 -7 q 32 3 67 -7 l 28 10 l 342 949 q 426 954 371 954 q 510 949 482 954 l 821 10 q 746 -10 792 -10 q 681 7 700 -10 q 647 68 661 24 l 596 231 m 279 350 l 350 351 l 489 351 q 558 350 546 350 l 494 551 q 421 803 446 707 l 414 803 q 360 601 397 726 l 279 350 m 303 1253 l 585 1086 q 542 1011 574 1032 l 239 1136 q 263 1203 243 1169 q 303 1253 282 1238 z "},"Á":{"ha":849,"x_min":28,"x_max":821,"o":"m 596 231 l 513 229 l 322 229 l 242 231 l 168 -1 q 106 -7 144 -7 q 32 3 67 -7 l 28 10 l 342 949 q 426 954 371 954 q 510 949 482 954 l 821 10 q 746 -10 792 -10 q 681 7 700 -10 q 647 68 661 24 l 596 231 m 279 350 l 350 351 l 489 351 q 558 350 546 350 l 494 551 q 421 803 446 707 l 414 803 q 360 601 397 726 l 279 350 m 288 1086 l 569 1253 q 610 1203 590 1238 q 633 1136 629 1169 l 331 1011 q 303 1043 315 1021 q 288 1086 290 1065 z "},"Â":{"ha":849,"x_min":28,"x_max":821,"o":"m 596 231 l 513 229 l 322 229 l 242 231 l 168 -1 q 106 -7 144 -7 q 32 3 67 -7 l 28 10 l 342 949 q 426 954 371 954 q 510 949 482 954 l 821 10 q 746 -10 792 -10 q 681 7 700 -10 q 647 68 661 24 l 596 231 m 279 350 l 350 351 l 489 351 q 558 350 546 350 l 494 551 q 421 803 446 707 l 414 803 q 360 601 397 726 l 279 350 m 582 1024 l 425 1128 l 265 1013 q 228 1038 247 1019 q 203 1076 208 1057 l 361 1233 q 489 1233 426 1246 l 644 1086 q 619 1047 638 1064 q 582 1024 600 1029 z "},"Ã":{"ha":849,"x_min":28,"x_max":821,"o":"m 596 231 l 513 229 l 322 229 l 242 231 l 168 -1 q 106 -7 144 -7 q 32 3 67 -7 l 28 10 l 342 949 q 426 954 371 954 q 510 949 482 954 l 821 10 q 746 -10 792 -10 q 681 7 700 -10 q 647 68 661 24 l 596 231 m 279 350 l 350 351 l 489 351 q 558 350 546 350 l 494 551 q 421 803 446 707 l 414 803 q 360 601 397 726 l 279 350 m 442 1050 l 364 1088 q 340 1097 351 1093 q 318 1100 329 1100 q 291 1092 303 1101 q 264 1065 279 1083 l 247 1046 q 205 1058 226 1046 q 175 1089 183 1071 l 188 1117 q 249 1192 210 1165 q 332 1218 288 1218 q 411 1196 372 1218 l 489 1160 q 509 1151 499 1154 q 531 1147 519 1147 q 589 1182 558 1146 l 606 1201 q 678 1157 657 1200 l 665 1131 q 524 1029 618 1029 q 442 1050 489 1029 z "},"Ä":{"ha":849,"x_min":28,"x_max":821,"o":"m 596 231 l 513 229 l 322 229 l 242 231 l 168 -1 q 106 -7 144 -7 q 32 3 67 -7 l 28 10 l 342 949 q 426 954 371 954 q 510 949 482 954 l 821 10 q 746 -10 792 -10 q 681 7 700 -10 q 647 68 661 24 l 596 231 m 279 350 l 350 351 l 489 351 q 558 350 546 350 l 494 551 q 421 803 446 707 l 414 803 q 360 601 397 726 l 279 350 m 506 1153 q 571 1169 531 1169 q 631 1158 610 1169 q 653 1096 653 1147 q 638 1036 653 1050 q 571 1022 622 1022 q 507 1038 522 1022 q 492 1096 492 1054 q 495 1126 492 1111 q 506 1153 499 1142 m 213 1153 q 242 1165 225 1161 q 279 1169 260 1169 q 339 1158 317 1169 q 361 1096 361 1146 q 344 1036 361 1050 q 279 1022 328 1022 q 213 1041 226 1022 q 200 1096 200 1060 q 213 1153 200 1128 z "},"Å":{"ha":849,"x_min":28,"x_max":821,"o":"m 596 231 l 322 229 l 242 231 l 168 -1 q 142 -6 157 -4 q 110 -7 126 -7 q 71 -5 90 -7 q 32 3 51 -3 l 28 10 l 340 946 q 258 1085 258 990 q 271 1145 258 1117 q 306 1195 283 1174 q 358 1229 328 1217 q 425 1242 389 1242 q 547 1197 500 1242 q 594 1085 594 1151 q 510 946 594 989 l 821 10 q 746 -10 790 -10 q 681 7 700 -10 q 647 68 661 24 l 596 231 m 279 350 l 489 351 l 558 350 l 494 551 q 451 692 469 631 q 421 803 433 754 l 414 803 q 360 601 397 728 l 279 350 m 426 1160 q 376 1138 396 1160 q 356 1083 356 1117 q 378 1028 356 1047 q 432 1008 400 1008 q 479 1032 464 1008 q 494 1083 494 1056 q 479 1136 494 1113 q 426 1160 464 1160 z "},"Æ":{"ha":1217,"x_min":21,"x_max":1151,"o":"m 557 231 l 481 229 l 357 229 l 283 231 l 171 -1 q 102 -7 143 -7 q 26 3 61 -7 l 21 11 l 476 935 q 565 949 506 949 l 1124 949 q 1129 888 1129 919 q 1117 824 1129 857 q 699 824 908 824 l 700 733 l 700 539 l 786 540 l 1049 540 q 1056 478 1056 515 q 1049 418 1056 442 l 786 418 q 700 419 732 418 l 700 193 q 699 158 700 181 q 699 121 699 135 q 790 125 739 125 l 1151 125 q 1147 68 1151 88 q 1053 -1 1138 -1 l 640 -1 q 579 23 601 -1 q 557 90 557 47 l 557 231 m 482 351 l 557 350 l 557 803 l 550 803 q 463 601 503 686 l 340 350 l 397 351 l 482 351 z "},"Ç":{"ha":839,"x_min":68,"x_max":783,"o":"m 364 -103 q 393 -15 378 -56 q 244 35 306 -8 q 143 144 182 78 q 86 295 104 211 q 68 469 68 379 q 97 688 68 594 q 177 842 126 781 q 296 935 228 904 q 440 967 364 967 q 583 944 519 967 q 691 885 646 922 q 760 799 736 847 q 783 696 783 750 q 700 613 783 613 q 686 613 696 613 q 666 615 676 613 q 647 619 656 617 q 639 629 639 622 q 628 712 639 672 q 594 782 617 751 q 533 830 572 813 q 442 847 494 847 q 279 751 335 847 q 224 476 224 656 q 283 205 224 299 q 460 111 343 111 q 703 217 576 111 q 776 121 760 179 q 482 -15 661 6 q 467 -51 468 -42 q 560 -87 525 -54 q 596 -176 596 -121 q 583 -230 596 -206 q 547 -272 569 -254 q 495 -299 525 -289 q 432 -310 465 -310 q 319 -282 364 -310 q 349 -210 321 -246 q 413 -229 379 -229 q 465 -214 449 -229 q 481 -175 481 -199 q 461 -134 481 -147 q 419 -121 442 -121 q 389 -128 403 -121 q 364 -103 372 -122 z "},"È":{"ha":786,"x_min":125,"x_max":721,"o":"m 271 192 l 269 121 q 361 125 311 125 l 721 125 q 717 68 721 88 q 622 -1 704 -1 l 210 -1 q 148 23 171 -1 q 125 90 125 47 l 125 940 l 135 949 l 693 949 q 697 890 697 926 q 686 824 697 853 l 269 824 l 271 733 l 271 539 l 357 540 l 618 540 q 625 478 625 515 q 618 418 625 442 l 357 418 q 271 419 303 418 l 271 192 m 292 1253 l 574 1086 q 531 1011 563 1032 l 228 1136 q 251 1203 232 1169 q 292 1253 271 1238 z "},"É":{"ha":786,"x_min":125,"x_max":721,"o":"m 271 192 l 269 121 q 361 125 311 125 l 721 125 q 717 68 721 88 q 622 -1 704 -1 l 210 -1 q 148 23 171 -1 q 125 90 125 47 l 125 940 l 135 949 l 693 949 q 697 890 697 926 q 686 824 697 853 l 269 824 l 271 733 l 271 539 l 357 540 l 618 540 q 625 478 625 515 q 618 418 625 442 l 357 418 q 271 419 303 418 l 271 192 m 275 1086 l 557 1253 q 597 1203 578 1238 q 621 1136 617 1169 l 318 1011 q 290 1043 303 1021 q 275 1086 278 1065 z "},"Ê":{"ha":786,"x_min":125,"x_max":721,"o":"m 271 192 l 269 121 q 361 125 311 125 l 721 125 q 717 68 721 88 q 622 -1 704 -1 l 210 -1 q 148 23 171 -1 q 125 90 125 47 l 125 940 l 135 949 l 693 949 q 697 890 697 926 q 686 824 697 853 l 269 824 l 271 733 l 271 539 l 357 540 l 618 540 q 625 478 625 515 q 618 418 625 442 l 357 418 q 271 419 303 418 l 271 192 m 571 1024 l 414 1128 l 254 1013 q 217 1038 236 1019 q 192 1076 197 1057 l 350 1233 q 478 1233 415 1246 l 633 1086 q 608 1047 626 1064 q 571 1024 589 1029 z "},"Ë":{"ha":786,"x_min":125,"x_max":721,"o":"m 271 192 l 269 121 q 361 125 311 125 l 721 125 q 717 68 721 88 q 622 -1 704 -1 l 210 -1 q 148 23 171 -1 q 125 90 125 47 l 125 940 l 135 949 l 693 949 q 697 890 697 926 q 686 824 697 853 l 269 824 l 271 733 l 271 539 l 357 540 l 618 540 q 625 478 625 515 q 618 418 625 442 l 357 418 q 271 419 303 418 l 271 192 m 494 1153 q 560 1169 519 1169 q 620 1158 599 1169 q 642 1096 642 1147 q 626 1036 642 1050 q 560 1022 611 1022 q 496 1038 511 1022 q 481 1096 481 1054 q 484 1126 481 1111 q 494 1153 488 1142 m 201 1153 q 231 1165 214 1161 q 268 1169 249 1169 q 328 1158 306 1169 q 350 1096 350 1146 q 333 1036 350 1050 q 268 1022 317 1022 q 202 1041 215 1022 q 189 1096 189 1060 q 201 1153 189 1128 z "},"Ì":{"ha":408,"x_min":19,"x_max":365,"o":"m 131 0 l 131 949 q 203 954 158 954 q 278 949 249 954 l 278 0 q 203 -6 249 -6 q 131 0 158 -6 m 83 1253 l 365 1086 q 322 1011 354 1032 l 19 1136 q 43 1203 24 1169 q 83 1253 63 1238 z "},"Í":{"ha":408,"x_min":65,"x_max":411,"o":"m 131 0 l 131 949 q 203 954 158 954 q 278 949 249 954 l 278 0 q 203 -6 249 -6 q 131 0 158 -6 m 65 1086 l 347 1253 q 388 1203 368 1238 q 411 1136 407 1169 l 108 1011 q 81 1043 93 1021 q 65 1086 68 1065 z "},"Î":{"ha":408,"x_min":-18,"x_max":424,"o":"m 131 0 l 131 949 q 203 954 158 954 q 278 949 249 954 l 278 0 q 203 -6 249 -6 q 131 0 158 -6 m 361 1024 l 204 1128 l 44 1013 q 7 1038 26 1019 q -18 1076 -12 1057 l 140 1233 q 268 1233 206 1246 l 424 1086 q 398 1047 417 1064 q 361 1024 379 1029 z "},"Ï":{"ha":408,"x_min":-21,"x_max":432,"o":"m 131 0 l 131 949 q 203 954 158 954 q 278 949 249 954 l 278 0 q 203 -6 249 -6 q 131 0 158 -6 m 285 1153 q 350 1169 310 1169 q 410 1158 389 1169 q 432 1096 432 1147 q 417 1036 432 1050 q 350 1022 401 1022 q 286 1038 301 1022 q 271 1096 271 1054 q 274 1126 271 1111 q 285 1153 278 1142 m -8 1153 q 22 1165 4 1161 q 58 1169 39 1169 q 118 1158 96 1169 q 140 1096 140 1146 q 124 1036 140 1050 q 58 1022 107 1022 q -8 1041 6 1022 q -21 1096 -21 1060 q -8 1153 -21 1128 z "},"Ð":{"ha":922,"x_min":35,"x_max":851,"o":"m 704 64 q 654 34 683 47 q 592 12 625 21 q 526 -2 560 3 q 461 -7 492 -7 q 354 -6 429 -7 q 157 -1 279 -4 l 147 8 l 147 419 l 40 419 q 36 447 38 431 q 35 479 35 463 q 36 512 35 496 q 40 542 38 528 l 147 542 l 147 940 l 157 950 q 463 954 278 954 q 650 917 575 954 q 769 814 725 879 q 833 661 814 749 q 851 474 851 574 q 821 235 851 335 q 704 64 790 135 m 463 835 l 293 835 l 293 542 l 507 542 q 512 510 510 525 q 514 479 514 494 q 507 419 514 451 l 293 419 l 293 113 l 463 113 q 576 139 531 113 q 648 213 621 165 q 686 328 675 261 q 697 475 697 394 q 644 742 697 649 q 463 835 592 835 z "},"Ñ":{"ha":944,"x_min":126,"x_max":818,"o":"m 810 954 l 818 947 l 818 1 q 729 -6 779 -6 q 640 0 679 -6 l 344 582 q 257 775 300 675 l 251 774 q 264 433 264 558 l 264 0 q 194 -6 231 -6 q 126 0 158 -6 l 126 947 q 215 954 165 954 q 303 949 264 954 l 596 367 q 647 253 615 325 q 688 165 679 182 l 693 167 q 682 517 682 344 l 682 863 q 699 933 682 913 q 761 954 717 954 l 810 954 m 492 1050 l 414 1088 q 390 1097 401 1093 q 368 1100 379 1100 q 341 1092 353 1101 q 314 1065 329 1083 l 297 1046 q 255 1058 276 1046 q 225 1089 233 1071 l 238 1117 q 299 1192 260 1165 q 382 1218 338 1218 q 461 1196 422 1218 l 539 1160 q 559 1151 549 1154 q 581 1147 569 1147 q 639 1182 608 1146 l 656 1201 q 728 1157 707 1200 l 715 1131 q 574 1029 668 1029 q 492 1050 539 1029 z "},"Ò":{"ha":914,"x_min":68,"x_max":844,"o":"m 267 724 q 233 606 243 665 q 224 482 224 546 q 233 342 224 411 q 269 219 243 274 q 342 133 296 165 q 458 100 388 100 q 580 138 535 100 q 649 233 625 176 q 681 356 674 290 q 689 475 689 421 q 681 596 689 531 q 650 717 674 661 q 580 811 626 774 q 457 849 533 849 q 338 815 386 849 q 267 724 290 782 m 217 65 q 68 474 68 193 q 94 678 68 588 q 169 833 119 769 q 290 932 218 897 q 457 967 363 967 q 623 933 550 967 q 744 835 696 899 q 819 679 793 771 q 844 474 844 588 q 819 269 844 360 q 744 114 793 178 q 623 16 696 50 q 457 -18 550 -18 q 217 65 310 -18 m 333 1253 l 615 1086 q 572 1011 604 1032 l 269 1136 q 293 1203 274 1169 q 333 1253 313 1238 z "},"Ó":{"ha":914,"x_min":68,"x_max":844,"o":"m 267 724 q 233 606 243 665 q 224 482 224 546 q 233 342 224 411 q 269 219 243 274 q 342 133 296 165 q 458 100 388 100 q 580 138 535 100 q 649 233 625 176 q 681 356 674 290 q 689 475 689 421 q 681 596 689 531 q 650 717 674 661 q 580 811 626 774 q 457 849 533 849 q 338 815 386 849 q 267 724 290 782 m 217 65 q 68 474 68 193 q 94 678 68 588 q 169 833 119 769 q 290 932 218 897 q 457 967 363 967 q 623 933 550 967 q 744 835 696 899 q 819 679 793 771 q 844 474 844 588 q 819 269 844 360 q 744 114 793 178 q 623 16 696 50 q 457 -18 550 -18 q 217 65 310 -18 m 315 1086 l 597 1253 q 638 1203 618 1238 q 661 1136 657 1169 l 358 1011 q 331 1043 343 1021 q 315 1086 318 1065 z "},"Ô":{"ha":914,"x_min":68,"x_max":844,"o":"m 267 724 q 233 606 243 665 q 224 482 224 546 q 233 342 224 411 q 269 219 243 274 q 342 133 296 165 q 458 100 388 100 q 580 138 535 100 q 649 233 625 176 q 681 356 674 290 q 689 475 689 421 q 681 596 689 531 q 650 717 674 661 q 580 811 626 774 q 457 849 533 849 q 338 815 386 849 q 267 724 290 782 m 217 65 q 68 474 68 193 q 94 678 68 588 q 169 833 119 769 q 290 932 218 897 q 457 967 363 967 q 623 933 550 967 q 744 835 696 899 q 819 679 793 771 q 844 474 844 588 q 819 269 844 360 q 744 114 793 178 q 623 16 696 50 q 457 -18 550 -18 q 217 65 310 -18 m 613 1024 l 456 1128 l 296 1013 q 258 1038 278 1019 q 233 1076 239 1057 l 392 1233 q 519 1233 457 1246 l 675 1086 q 649 1047 668 1064 q 613 1024 631 1029 z "},"Õ":{"ha":914,"x_min":68,"x_max":844,"o":"m 267 724 q 233 606 243 665 q 224 482 224 546 q 233 342 224 411 q 269 219 243 274 q 342 133 296 165 q 458 100 388 100 q 580 138 535 100 q 649 233 625 176 q 681 356 674 290 q 689 475 689 421 q 681 596 689 531 q 650 717 674 661 q 580 811 626 774 q 457 849 533 849 q 338 815 386 849 q 267 724 290 782 m 217 65 q 68 474 68 193 q 94 678 68 588 q 169 833 119 769 q 290 932 218 897 q 457 967 363 967 q 623 933 550 967 q 744 835 696 899 q 819 679 793 771 q 844 474 844 588 q 819 269 844 360 q 744 114 793 178 q 623 16 696 50 q 457 -18 550 -18 q 217 65 310 -18 m 468 1050 l 390 1088 q 367 1097 378 1093 q 344 1100 356 1100 q 317 1092 329 1101 q 290 1065 306 1083 l 274 1046 q 231 1058 253 1046 q 201 1089 210 1071 l 214 1117 q 275 1192 236 1165 q 358 1218 314 1218 q 438 1196 399 1218 l 515 1160 q 535 1151 525 1154 q 557 1147 546 1147 q 615 1182 585 1146 l 632 1201 q 704 1157 683 1200 l 692 1131 q 550 1029 644 1029 q 468 1050 515 1029 z "},"Ö":{"ha":914,"x_min":68,"x_max":844,"o":"m 267 724 q 233 606 243 665 q 224 482 224 546 q 233 342 224 411 q 269 219 243 274 q 342 133 296 165 q 458 100 388 100 q 580 138 535 100 q 649 233 625 176 q 681 356 674 290 q 689 475 689 421 q 681 596 689 531 q 650 717 674 661 q 580 811 626 774 q 457 849 533 849 q 338 815 386 849 q 267 724 290 782 m 217 65 q 68 474 68 193 q 94 678 68 588 q 169 833 119 769 q 290 932 218 897 q 457 967 363 967 q 623 933 550 967 q 744 835 696 899 q 819 679 793 771 q 844 474 844 588 q 819 269 844 360 q 744 114 793 178 q 623 16 696 50 q 457 -18 550 -18 q 217 65 310 -18 m 536 1153 q 601 1169 561 1169 q 662 1158 640 1169 q 683 1096 683 1147 q 668 1036 683 1050 q 601 1022 653 1022 q 538 1038 553 1022 q 522 1096 522 1054 q 526 1126 522 1111 q 536 1153 529 1142 m 243 1153 q 273 1165 256 1161 q 310 1169 290 1169 q 369 1158 347 1169 q 392 1096 392 1146 q 375 1036 392 1050 q 310 1022 358 1022 q 244 1041 257 1022 q 231 1096 231 1060 q 243 1153 231 1128 z "},"×":{"ha":736,"x_min":100,"x_max":636,"o":"m 367 319 l 189 139 q 138 176 165 150 q 100 229 111 201 q 247 375 238 365 q 279 407 264 392 l 238 450 l 100 586 q 189 676 128 650 l 326 539 q 367 494 364 497 q 392 519 378 504 q 410 538 406 533 l 546 676 q 636 586 606 650 l 499 450 q 475 426 492 442 q 454 407 458 411 q 499 367 496 369 l 636 229 q 546 140 607 161 l 410 278 l 367 319 z "},"Ø":{"ha":915,"x_min":68,"x_max":847,"o":"m 68 475 q 92 666 68 576 q 164 822 115 756 q 285 928 213 889 q 458 967 358 967 q 633 928 564 967 l 689 1024 q 742 1006 714 1021 q 786 971 771 990 l 722 860 q 847 475 847 724 q 824 285 847 375 q 753 128 801 196 q 632 22 706 61 q 458 -18 558 -18 q 281 21 357 -18 l 228 -74 q 174 -56 203 -71 q 131 -21 146 -40 l 192 89 q 68 475 68 225 m 264 224 l 574 818 q 457 851 525 851 q 343 820 389 851 q 270 736 297 789 q 231 613 243 683 q 219 467 219 543 q 264 224 219 319 m 650 725 l 340 131 q 460 97 392 97 q 572 128 526 97 q 644 213 617 160 q 683 334 671 265 q 694 479 694 403 q 650 725 694 625 z "},"Ù":{"ha":929,"x_min":114,"x_max":815,"o":"m 815 949 l 815 333 q 721 73 815 164 q 464 -18 626 -18 q 208 72 303 -18 q 114 333 114 163 l 114 946 l 122 954 l 179 954 q 242 932 224 954 q 261 860 261 910 l 261 333 q 313 160 261 219 q 464 101 364 101 q 667 333 667 101 l 667 949 q 701 953 682 951 q 740 954 721 954 q 781 953 761 954 q 815 949 800 951 m 338 1253 l 619 1086 q 576 1011 608 1032 l 274 1136 q 297 1203 278 1169 q 338 1253 317 1238 z "},"Ú":{"ha":929,"x_min":114,"x_max":815,"o":"m 815 949 l 815 333 q 721 73 815 164 q 464 -18 626 -18 q 208 72 303 -18 q 114 333 114 163 l 114 946 l 122 954 l 179 954 q 242 932 224 954 q 261 860 261 910 l 261 333 q 313 160 261 219 q 464 101 364 101 q 667 333 667 101 l 667 949 q 701 953 682 951 q 740 954 721 954 q 781 953 761 954 q 815 949 800 951 m 322 1086 l 604 1253 q 644 1203 625 1238 q 668 1136 664 1169 l 365 1011 q 338 1043 350 1021 q 322 1086 325 1065 z "},"Û":{"ha":929,"x_min":114,"x_max":815,"o":"m 815 949 l 815 333 q 721 73 815 164 q 464 -18 626 -18 q 208 72 303 -18 q 114 333 114 163 l 114 946 l 122 954 l 179 954 q 242 932 224 954 q 261 860 261 910 l 261 333 q 313 160 261 219 q 464 101 364 101 q 667 333 667 101 l 667 949 q 701 953 682 951 q 740 954 721 954 q 781 953 761 954 q 815 949 800 951 m 617 1024 l 460 1128 l 300 1013 q 263 1038 282 1019 q 238 1076 243 1057 l 396 1233 q 524 1233 461 1246 l 679 1086 q 653 1047 672 1064 q 617 1024 635 1029 z "},"Ü":{"ha":929,"x_min":114,"x_max":815,"o":"m 815 949 l 815 333 q 721 73 815 164 q 464 -18 626 -18 q 208 72 303 -18 q 114 333 114 163 l 114 946 l 122 954 l 179 954 q 242 932 224 954 q 261 860 261 910 l 261 333 q 313 160 261 219 q 464 101 364 101 q 667 333 667 101 l 667 949 q 701 953 682 951 q 740 954 721 954 q 781 953 761 954 q 815 949 800 951 m 543 1153 q 608 1169 568 1169 q 669 1158 647 1169 q 690 1096 690 1147 q 675 1036 690 1050 q 608 1022 660 1022 q 544 1038 560 1022 q 529 1096 529 1054 q 533 1126 529 1111 q 543 1153 536 1142 m 250 1153 q 280 1165 263 1161 q 317 1169 297 1169 q 376 1158 354 1169 q 399 1096 399 1146 q 382 1036 399 1050 q 317 1022 365 1022 q 251 1041 264 1022 q 238 1096 238 1060 q 250 1153 238 1128 z "},"Ý":{"ha":699,"x_min":13,"x_max":689,"o":"m 421 631 l 547 949 q 611 956 574 956 q 682 944 649 956 l 689 935 l 425 304 l 425 0 q 349 -6 393 -6 q 276 0 304 -6 l 276 307 l 13 932 q 97 958 60 958 q 153 944 135 958 q 185 894 171 929 l 294 628 q 353 454 322 558 l 360 454 q 421 631 375 510 m 217 1086 l 499 1253 q 539 1203 519 1238 q 563 1136 558 1169 l 260 1011 q 232 1043 244 1021 q 217 1086 219 1065 z "},"Þ":{"ha":793,"x_min":126,"x_max":738,"o":"m 126 0 l 126 949 q 160 953 140 951 q 199 954 179 954 q 239 953 219 954 q 274 949 258 951 l 274 807 q 357 809 321 808 q 418 810 393 810 q 549 790 490 810 q 650 733 608 771 q 715 638 692 694 q 738 507 738 582 q 715 375 738 432 q 650 280 692 318 q 549 222 608 242 q 418 201 490 201 l 274 201 l 274 0 q 239 -4 258 -3 q 199 -6 219 -6 q 160 -4 179 -6 q 126 0 140 -3 m 274 318 l 413 319 q 492 335 460 319 q 545 375 525 350 q 574 433 565 400 q 583 506 583 467 q 574 577 583 543 q 546 636 565 611 q 494 676 526 661 q 417 692 463 692 q 336 692 372 692 q 274 693 300 692 l 274 318 z "},"ß":{"ha":871,"x_min":21,"x_max":825,"o":"m 146 0 l 146 543 l 26 542 q 22 567 24 553 q 21 599 21 582 q 22 629 21 614 q 26 657 24 644 l 146 654 l 146 703 q 228 901 146 832 q 450 971 311 971 q 576 951 519 971 q 672 896 632 932 q 733 808 711 860 q 754 694 754 757 q 733 586 754 642 l 731 586 l 733 585 q 650 544 681 571 q 619 486 619 517 q 631 448 619 468 q 671 404 643 428 l 722 358 q 825 178 825 267 q 806 99 825 135 q 755 37 788 63 q 677 -3 722 11 q 579 -18 632 -18 q 394 22 478 -18 q 409 78 396 47 q 442 125 422 108 q 500 101 471 108 q 557 93 529 93 q 639 116 606 93 q 672 175 672 139 q 659 219 671 194 q 617 271 647 244 l 560 319 q 490 399 513 360 q 468 474 468 438 q 505 569 468 524 q 604 639 542 614 q 610 688 610 667 q 569 811 610 763 q 449 860 528 860 q 292 688 292 860 l 292 0 q 257 -4 276 -3 q 218 -6 238 -6 q 178 -4 197 -6 q 146 0 160 -3 z "},"à":{"ha":704,"x_min":60,"x_max":640,"o":"m 640 64 q 586 -10 624 14 q 475 76 504 6 q 272 -18 376 -18 q 180 -1 219 -18 q 113 44 140 15 q 73 109 86 72 q 60 186 60 146 q 133 358 60 300 q 326 417 206 417 q 394 415 361 417 q 460 407 428 413 l 460 461 q 346 585 460 585 q 128 532 267 585 q 86 636 88 567 q 374 700 228 700 q 542 642 482 700 q 601 468 601 585 l 601 183 q 640 64 601 97 m 296 96 q 460 179 385 96 l 460 311 q 401 315 432 314 q 338 317 371 317 q 238 285 274 317 q 203 203 203 254 q 228 124 203 153 q 296 96 253 96 m 256 1026 l 456 806 q 393 747 436 760 l 156 932 q 195 989 167 963 q 256 1026 224 1015 z "},"á":{"ha":704,"x_min":60,"x_max":640,"o":"m 640 64 q 586 -10 624 14 q 475 76 504 6 q 272 -18 376 -18 q 180 -1 219 -18 q 113 44 140 15 q 73 109 86 72 q 60 186 60 146 q 133 358 60 300 q 326 417 206 417 q 394 415 361 417 q 460 407 428 413 l 460 461 q 346 585 460 585 q 128 532 267 585 q 86 636 88 567 q 374 700 228 700 q 542 642 482 700 q 601 468 601 585 l 601 183 q 640 64 601 97 m 296 96 q 460 179 385 96 l 460 311 q 401 315 432 314 q 338 317 371 317 q 238 285 274 317 q 203 203 203 254 q 228 124 203 153 q 296 96 253 96 m 235 806 l 435 1026 q 496 989 467 1015 q 536 932 525 963 l 299 747 q 261 769 279 753 q 235 806 243 786 z "},"â":{"ha":704,"x_min":60,"x_max":640,"o":"m 640 64 q 586 -10 624 14 q 475 76 504 6 q 272 -18 376 -18 q 180 -1 219 -18 q 113 44 140 15 q 73 109 86 72 q 60 186 60 146 q 133 358 60 300 q 326 417 206 417 q 394 415 361 417 q 460 407 428 413 l 460 461 q 346 585 460 585 q 128 532 267 585 q 86 636 88 567 q 374 700 228 700 q 542 642 482 700 q 601 468 601 585 l 601 183 q 640 64 601 97 m 296 96 q 460 179 385 96 l 460 311 q 401 315 432 314 q 338 317 371 317 q 238 285 274 317 q 203 203 203 254 q 228 124 203 153 q 296 96 253 96 m 472 758 l 343 885 l 204 751 q 138 811 161 768 l 285 996 q 406 997 338 1014 l 542 822 q 472 758 521 776 z "},"ã":{"ha":704,"x_min":60,"x_max":640,"o":"m 640 64 q 586 -10 624 14 q 475 76 504 6 q 272 -18 376 -18 q 180 -1 219 -18 q 113 44 140 15 q 73 109 86 72 q 60 186 60 146 q 133 358 60 300 q 326 417 206 417 q 394 415 361 417 q 460 407 428 413 l 460 461 q 346 585 460 585 q 128 532 267 585 q 86 636 88 567 q 374 700 228 700 q 542 642 482 700 q 601 468 601 585 l 601 183 q 640 64 601 97 m 296 96 q 460 179 385 96 l 460 311 q 401 315 432 314 q 338 317 371 317 q 238 285 274 317 q 203 203 203 254 q 228 124 203 153 q 296 96 253 96 m 356 793 l 279 831 q 259 840 269 836 q 238 843 249 843 q 181 808 206 844 l 165 789 q 124 801 144 789 q 94 833 103 814 l 107 861 q 246 963 153 963 q 325 942 283 963 l 401 903 q 421 894 411 897 q 442 890 431 890 q 470 898 456 890 q 500 926 485 906 l 515 946 q 557 933 536 946 q 586 901 578 919 l 574 874 q 435 772 528 772 q 356 793 399 772 z "},"ä":{"ha":704,"x_min":60,"x_max":640,"o":"m 640 64 q 586 -10 624 14 q 475 76 504 6 q 272 -18 376 -18 q 180 -1 219 -18 q 113 44 140 15 q 73 109 86 72 q 60 186 60 146 q 133 358 60 300 q 326 417 206 417 q 394 415 361 417 q 460 407 428 413 l 460 461 q 346 585 460 585 q 128 532 267 585 q 86 636 88 567 q 374 700 228 700 q 542 642 482 700 q 601 468 601 585 l 601 183 q 640 64 601 97 m 296 96 q 460 179 385 96 l 460 311 q 401 315 432 314 q 338 317 371 317 q 238 285 274 317 q 203 203 203 254 q 228 124 203 153 q 296 96 253 96 m 403 796 q 394 822 396 808 q 392 850 392 836 q 408 908 392 894 q 469 922 425 922 q 528 911 510 922 q 547 850 547 900 q 531 792 547 804 q 471 779 515 779 q 403 796 429 779 m 144 796 q 135 821 138 807 q 133 850 133 835 q 154 909 133 896 q 211 922 175 922 q 272 908 254 922 q 289 850 289 894 q 272 792 289 806 q 210 779 254 779 q 144 796 167 779 z "},"å":{"ha":704,"x_min":60,"x_max":640,"o":"m 640 64 q 586 -10 624 14 q 475 76 504 6 q 272 -18 376 -18 q 180 -1 219 -18 q 113 44 140 15 q 73 109 86 72 q 60 186 60 146 q 133 358 60 300 q 326 417 206 417 q 394 415 361 417 q 460 407 428 413 l 460 461 q 346 585 460 585 q 128 532 267 585 q 86 636 88 567 q 374 700 228 700 q 542 642 482 700 q 601 468 601 585 l 601 183 q 640 64 601 97 m 296 96 q 460 179 385 96 l 460 311 q 401 315 432 314 q 338 317 371 317 q 238 285 274 317 q 203 203 203 254 q 228 124 203 153 q 296 96 253 96 m 340 749 q 273 761 304 749 q 219 795 242 774 q 185 845 197 817 q 172 906 172 874 q 185 968 172 939 q 219 1018 197 997 q 272 1051 242 1039 q 340 1064 303 1064 q 408 1051 378 1064 q 461 1018 439 1039 q 496 968 483 997 q 508 906 508 939 q 496 845 508 874 q 460 795 483 817 q 407 761 438 774 q 340 749 376 749 m 290 960 q 275 935 279 949 q 271 906 271 921 q 290 852 271 874 q 340 831 308 831 q 390 852 371 831 q 410 906 410 874 q 390 960 410 938 q 340 982 371 982 q 290 960 310 982 z "},"æ":{"ha":1085,"x_min":60,"x_max":1019,"o":"m 1008 297 l 604 297 q 644 151 608 203 q 765 99 679 99 q 956 153 851 99 q 1000 60 992 118 q 738 -18 893 -18 q 514 97 583 -18 q 265 -18 403 -18 q 178 -2 217 -18 q 114 42 140 14 q 74 108 88 71 q 60 188 60 146 q 133 359 60 301 q 326 417 206 417 q 395 415 363 417 q 460 407 428 413 l 460 463 q 347 585 460 585 q 128 532 261 585 q 86 636 88 567 q 361 700 228 700 q 550 615 494 700 q 750 704 625 704 q 862 682 813 704 q 947 620 911 660 q 1001 526 982 581 q 1019 407 1019 471 q 1017 351 1019 378 q 1008 297 1014 324 m 296 96 q 475 192 400 96 q 458 310 463 243 q 404 315 433 313 q 340 317 375 317 q 238 285 272 317 q 203 203 203 254 q 228 124 203 153 q 296 96 253 96 m 744 597 q 604 401 614 597 l 881 401 l 881 418 q 848 547 881 497 q 744 597 815 597 z "},"ç":{"ha":654,"x_min":61,"x_max":603,"o":"m 271 -103 q 300 -15 279 -64 q 197 21 242 -8 q 122 96 153 50 q 76 202 92 142 q 61 332 61 263 q 85 497 61 426 q 148 613 108 567 q 240 681 188 658 q 350 704 292 704 q 456 686 410 704 q 535 639 503 668 q 585 572 568 610 q 603 494 603 533 q 531 415 603 415 q 471 421 494 415 l 471 436 q 349 593 471 593 q 246 529 282 593 q 210 339 210 465 q 367 100 210 100 q 535 169 444 100 q 572 133 554 158 q 596 85 590 108 q 389 -15 511 0 q 374 -51 375 -42 q 467 -87 432 -54 q 503 -176 503 -121 q 490 -230 503 -206 q 454 -272 476 -254 q 402 -299 432 -289 q 339 -310 372 -310 q 226 -282 271 -310 q 256 -210 229 -240 q 319 -229 286 -229 q 371 -214 356 -229 q 386 -175 386 -199 q 367 -134 386 -147 q 326 -121 349 -121 q 294 -128 311 -121 q 271 -103 275 -119 z "},"è":{"ha":694,"x_min":61,"x_max":626,"o":"m 617 297 l 208 297 q 249 150 213 201 q 374 99 286 99 q 463 111 415 99 q 563 151 511 124 q 608 60 597 119 q 347 -18 497 -18 q 214 10 268 -18 q 126 86 160 38 q 76 202 92 135 q 61 347 61 269 q 81 490 61 424 q 136 603 100 556 q 226 677 172 650 q 346 704 279 704 q 465 682 413 704 q 553 620 517 660 q 608 526 589 581 q 626 407 626 471 q 624 352 626 379 q 617 297 622 325 m 350 597 q 208 401 218 597 l 489 401 l 489 419 q 455 548 489 499 q 350 597 421 597 m 271 1026 l 471 806 q 408 747 451 760 l 171 932 q 210 989 182 963 q 271 1026 239 1015 z "},"é":{"ha":694,"x_min":61,"x_max":626,"o":"m 617 297 l 208 297 q 249 150 213 201 q 374 99 286 99 q 463 111 415 99 q 563 151 511 124 q 608 60 597 119 q 347 -18 497 -18 q 214 10 268 -18 q 126 86 160 38 q 76 202 92 135 q 61 347 61 269 q 81 490 61 424 q 136 603 100 556 q 226 677 172 650 q 346 704 279 704 q 465 682 413 704 q 553 620 517 660 q 608 526 589 581 q 626 407 626 471 q 624 352 626 379 q 617 297 622 325 m 350 597 q 208 401 218 597 l 489 401 l 489 419 q 455 548 489 499 q 350 597 421 597 m 250 806 l 450 1026 q 511 989 482 1015 q 551 932 540 963 l 314 747 q 276 769 294 753 q 250 806 258 786 z "},"ê":{"ha":694,"x_min":61,"x_max":626,"o":"m 617 297 l 208 297 q 249 150 213 201 q 374 99 286 99 q 463 111 415 99 q 563 151 511 124 q 608 60 597 119 q 347 -18 497 -18 q 214 10 268 -18 q 126 86 160 38 q 76 202 92 135 q 61 347 61 269 q 81 490 61 424 q 136 603 100 556 q 226 677 172 650 q 346 704 279 704 q 465 682 413 704 q 553 620 517 660 q 608 526 589 581 q 626 407 626 471 q 624 352 626 379 q 617 297 622 325 m 350 597 q 208 401 218 597 l 489 401 l 489 419 q 455 548 489 499 q 350 597 421 597 m 486 758 l 357 885 l 218 751 q 151 811 175 768 l 299 996 q 419 997 351 1014 l 556 822 q 486 758 535 776 z "},"ë":{"ha":694,"x_min":61,"x_max":626,"o":"m 617 297 l 208 297 q 249 150 213 201 q 374 99 286 99 q 463 111 415 99 q 563 151 511 124 q 608 60 597 119 q 347 -18 497 -18 q 214 10 268 -18 q 126 86 160 38 q 76 202 92 135 q 61 347 61 269 q 81 490 61 424 q 136 603 100 556 q 226 677 172 650 q 346 704 279 704 q 465 682 413 704 q 553 620 517 660 q 608 526 589 581 q 626 407 626 471 q 624 352 626 379 q 617 297 622 325 m 350 597 q 208 401 218 597 l 489 401 l 489 419 q 455 548 489 499 q 350 597 421 597 m 417 796 q 408 822 410 808 q 406 850 406 836 q 422 908 406 894 q 483 922 439 922 q 542 911 524 922 q 561 850 561 900 q 545 792 561 804 q 485 779 529 779 q 417 796 443 779 m 158 796 q 149 821 151 807 q 147 850 147 835 q 168 909 147 896 q 225 922 189 922 q 285 908 268 922 q 303 850 303 894 q 285 792 303 806 q 224 779 268 779 q 158 796 181 779 z "},"ì":{"ha":376,"x_min":-10,"x_max":290,"o":"m 271 567 l 271 0 q 199 -6 244 -6 q 128 0 154 -6 l 128 508 q 114 564 128 547 q 67 581 100 581 l 51 581 q 44 632 44 611 q 51 685 44 653 q 139 690 97 690 l 158 690 q 241 657 211 690 q 271 567 271 624 m 90 1026 l 290 806 q 228 747 271 760 l -10 932 q 30 989 1 963 q 90 1026 58 1015 z "},"í":{"ha":376,"x_min":44,"x_max":372,"o":"m 271 567 l 271 0 q 199 -6 244 -6 q 128 0 154 -6 l 128 508 q 114 564 128 547 q 67 581 100 581 l 51 581 q 44 632 44 611 q 51 685 44 653 q 139 690 97 690 l 158 690 q 241 657 211 690 q 271 567 271 624 m 71 806 l 271 1026 q 332 989 303 1015 q 372 932 361 963 l 135 747 q 97 769 115 753 q 71 806 79 786 z "},"î":{"ha":376,"x_min":-28,"x_max":376,"o":"m 271 567 l 271 0 q 199 -6 244 -6 q 128 0 154 -6 l 128 508 q 114 564 128 547 q 67 581 100 581 l 51 581 q 44 632 44 611 q 51 685 44 653 q 139 690 97 690 l 158 690 q 241 657 211 690 q 271 567 271 624 m 307 758 l 178 885 l 39 751 q -28 811 -4 768 l 119 996 q 240 997 172 1014 l 376 822 q 307 758 356 776 z "},"ï":{"ha":376,"x_min":-32,"x_max":382,"o":"m 271 567 l 271 0 q 199 -6 244 -6 q 128 0 154 -6 l 128 508 q 114 564 128 547 q 67 581 100 581 l 51 581 q 44 632 44 611 q 51 685 44 653 q 139 690 97 690 l 158 690 q 241 657 211 690 q 271 567 271 624 m 238 796 q 228 822 231 808 q 226 850 226 836 q 243 908 226 894 q 304 922 260 922 q 363 911 344 922 q 382 850 382 900 q 366 792 382 804 q 306 779 350 779 q 238 796 264 779 m -21 796 q -30 821 -28 807 q -32 850 -32 835 q -11 909 -32 896 q 46 922 10 922 q 106 908 89 922 q 124 850 124 894 q 106 792 124 806 q 44 779 89 779 q -21 796 1 779 z "},"ð":{"ha":718,"x_min":58,"x_max":658,"o":"m 154 794 l 274 876 q 222 913 250 896 q 163 947 194 931 q 183 1001 167 974 q 219 1039 200 1028 q 378 947 307 1001 l 499 1031 q 550 956 544 996 l 449 886 q 658 340 658 676 q 638 194 658 260 q 580 81 618 128 q 485 8 542 33 q 358 -18 429 -18 q 231 8 286 -18 q 137 81 175 35 q 78 192 99 128 q 58 331 58 256 q 78 469 58 406 q 136 578 99 532 q 228 651 174 625 q 351 676 282 676 q 451 653 397 676 q 344 814 419 738 l 207 718 q 154 794 165 749 m 511 340 q 489 528 511 453 q 360 569 428 569 q 207 329 207 569 q 358 90 207 90 q 511 340 511 90 z "},"ñ":{"ha":758,"x_min":108,"x_max":679,"o":"m 656 471 l 656 147 q 679 21 656 65 q 594 -10 643 -10 q 530 13 547 -10 q 513 82 513 36 l 513 435 q 494 538 513 507 q 429 568 475 568 q 335 545 383 568 q 251 482 288 522 l 251 0 q 181 -6 228 -6 q 140 -4 158 -6 q 108 0 122 -3 l 108 683 l 117 692 l 171 692 q 250 606 246 692 q 471 699 351 699 q 610 637 564 699 q 656 471 656 575 m 401 793 l 325 831 q 305 840 315 836 q 283 843 294 843 q 226 808 251 844 l 211 789 q 169 801 190 789 q 140 833 149 814 l 153 861 q 292 963 199 963 q 371 942 329 963 l 447 903 q 467 894 457 897 q 488 890 476 890 q 516 898 501 890 q 546 926 531 906 l 561 946 q 603 933 582 946 q 632 901 624 919 l 619 874 q 481 772 574 772 q 401 793 444 772 z "},"ò":{"ha":722,"x_min":61,"x_max":661,"o":"m 563 58 q 361 -18 486 -18 q 233 8 289 -18 q 140 81 178 33 q 81 195 101 129 q 61 343 61 261 q 81 490 61 424 q 140 605 101 557 q 233 678 178 653 q 361 704 289 704 q 489 678 433 704 q 583 605 544 653 q 641 490 621 557 q 661 343 661 424 q 563 58 661 157 m 361 594 q 210 343 210 594 q 361 92 210 92 q 514 343 514 92 q 361 594 514 594 m 276 1026 l 476 806 q 414 747 457 760 l 176 932 q 216 989 188 963 q 276 1026 244 1015 z "},"ó":{"ha":722,"x_min":61,"x_max":661,"o":"m 563 58 q 361 -18 486 -18 q 233 8 289 -18 q 140 81 178 33 q 81 195 101 129 q 61 343 61 261 q 81 490 61 424 q 140 605 101 557 q 233 678 178 653 q 361 704 289 704 q 489 678 433 704 q 583 605 544 653 q 641 490 621 557 q 661 343 661 424 q 563 58 661 157 m 361 594 q 210 343 210 594 q 361 92 210 92 q 514 343 514 92 q 361 594 514 594 m 256 806 l 456 1026 q 517 989 488 1015 q 557 932 546 963 l 319 747 q 282 769 300 753 q 256 806 264 786 z "},"ô":{"ha":722,"x_min":61,"x_max":661,"o":"m 563 58 q 361 -18 486 -18 q 233 8 289 -18 q 140 81 178 33 q 81 195 101 129 q 61 343 61 261 q 81 490 61 424 q 140 605 101 557 q 233 678 178 653 q 361 704 289 704 q 489 678 433 704 q 583 605 544 653 q 641 490 621 557 q 661 343 661 424 q 563 58 661 157 m 361 594 q 210 343 210 594 q 361 92 210 92 q 514 343 514 92 q 361 594 514 594 m 493 758 l 364 885 l 225 751 q 158 811 182 768 l 306 996 q 426 997 358 1014 l 563 822 q 493 758 542 776 z "},"õ":{"ha":722,"x_min":61,"x_max":661,"o":"m 563 58 q 361 -18 486 -18 q 233 8 289 -18 q 140 81 178 33 q 81 195 101 129 q 61 343 61 261 q 81 490 61 424 q 140 605 101 557 q 233 678 178 653 q 361 704 289 704 q 489 678 433 704 q 583 605 544 653 q 641 490 621 557 q 661 343 661 424 q 563 58 661 157 m 361 594 q 210 343 210 594 q 361 92 210 92 q 514 343 514 92 q 361 594 514 594 m 376 793 l 300 831 q 280 840 290 836 q 258 843 269 843 q 201 808 226 844 l 186 789 q 144 801 165 789 q 115 833 124 814 l 128 861 q 267 963 174 963 q 346 942 304 963 l 422 903 q 442 894 432 897 q 463 890 451 890 q 491 898 476 890 q 521 926 506 906 l 536 946 q 578 933 557 946 q 607 901 599 919 l 594 874 q 456 772 549 772 q 376 793 419 772 z "},"ö":{"ha":722,"x_min":61,"x_max":661,"o":"m 563 58 q 361 -18 486 -18 q 233 8 289 -18 q 140 81 178 33 q 81 195 101 129 q 61 343 61 261 q 81 490 61 424 q 140 605 101 557 q 233 678 178 653 q 361 704 289 704 q 489 678 433 704 q 583 605 544 653 q 641 490 621 557 q 661 343 661 424 q 563 58 661 157 m 361 594 q 210 343 210 594 q 361 92 210 92 q 514 343 514 92 q 361 594 514 594 m 424 796 q 415 822 417 808 q 413 850 413 836 q 429 908 413 894 q 490 922 446 922 q 549 911 531 922 q 568 850 568 900 q 552 792 568 804 q 492 779 536 779 q 424 796 450 779 m 165 796 q 156 821 158 807 q 154 850 154 835 q 175 909 154 896 q 232 922 196 922 q 292 908 275 922 q 310 850 310 894 q 292 792 310 806 q 231 779 275 779 q 165 796 188 779 z "},"÷":{"ha":736,"x_min":72,"x_max":664,"o":"m 296 596 q 283 653 283 621 q 296 714 283 685 q 369 731 325 731 q 411 726 394 731 q 437 715 428 722 q 449 693 446 708 q 453 653 453 678 q 435 591 449 600 q 368 579 421 582 q 296 596 318 579 m 296 100 q 283 160 283 126 q 290 201 283 185 q 306 224 296 218 q 333 232 317 229 q 369 235 349 235 q 432 224 414 232 q 453 160 450 217 q 450 128 453 143 q 444 104 447 114 q 419 89 440 94 q 369 83 399 83 q 296 100 322 83 m 658 347 l 78 347 q 74 374 75 358 q 72 407 72 390 q 78 471 72 443 l 658 471 q 664 407 664 443 q 663 374 664 390 q 658 347 661 358 z "},"ø":{"ha":725,"x_min":63,"x_max":663,"o":"m 565 626 q 663 342 663 529 q 642 194 663 260 q 584 81 622 128 q 490 8 546 33 q 361 -18 433 -18 q 235 7 290 -18 l 185 -78 q 103 -32 132 -71 l 156 61 q 63 343 63 154 q 83 492 63 425 q 141 606 103 558 q 235 678 179 653 q 361 704 290 704 q 488 679 431 704 l 536 764 q 618 718 589 756 l 565 626 m 499 504 l 289 106 q 363 88 319 88 q 438 108 407 88 q 489 162 469 128 q 517 242 508 196 q 525 338 525 288 q 499 504 525 443 m 224 186 l 432 582 q 363 599 399 599 q 287 579 318 599 q 236 526 256 560 q 208 447 217 492 q 199 350 199 401 q 224 186 199 246 z "},"ù":{"ha":760,"x_min":79,"x_max":689,"o":"m 103 215 l 103 539 q 79 664 103 622 q 169 694 114 694 q 246 604 246 694 l 246 250 q 264 147 246 178 q 328 117 282 117 q 421 140 374 117 q 506 201 468 163 l 506 686 q 576 692 544 692 q 650 686 608 692 l 650 194 q 689 63 650 97 q 635 -10 674 13 q 518 90 547 6 q 286 -12 410 -12 q 149 50 194 -12 q 103 215 103 113 m 288 1026 l 488 806 q 425 747 468 760 l 188 932 q 227 989 199 963 q 288 1026 256 1015 z "},"ú":{"ha":760,"x_min":79,"x_max":689,"o":"m 103 215 l 103 539 q 79 664 103 622 q 169 694 114 694 q 246 604 246 694 l 246 250 q 264 147 246 178 q 328 117 282 117 q 421 140 374 117 q 506 201 468 163 l 506 686 q 576 692 544 692 q 650 686 608 692 l 650 194 q 689 63 650 97 q 635 -10 674 13 q 518 90 547 6 q 286 -12 410 -12 q 149 50 194 -12 q 103 215 103 113 m 268 806 l 468 1026 q 529 989 500 1015 q 569 932 558 963 l 332 747 q 294 769 313 753 q 268 806 276 786 z "},"û":{"ha":760,"x_min":79,"x_max":689,"o":"m 103 215 l 103 539 q 79 664 103 622 q 169 694 114 694 q 246 604 246 694 l 246 250 q 264 147 246 178 q 328 117 282 117 q 421 140 374 117 q 506 201 468 163 l 506 686 q 576 692 544 692 q 650 686 608 692 l 650 194 q 689 63 650 97 q 635 -10 674 13 q 518 90 547 6 q 286 -12 410 -12 q 149 50 194 -12 q 103 215 103 113 m 504 758 l 375 885 l 236 751 q 169 811 193 768 l 317 996 q 438 997 369 1014 l 574 822 q 504 758 553 776 z "},"ü":{"ha":760,"x_min":79,"x_max":689,"o":"m 103 215 l 103 539 q 79 664 103 622 q 169 694 114 694 q 246 604 246 694 l 246 250 q 264 147 246 178 q 328 117 282 117 q 421 140 374 117 q 506 201 468 163 l 506 686 q 576 692 544 692 q 650 686 608 692 l 650 194 q 689 63 650 97 q 635 -10 674 13 q 518 90 547 6 q 286 -12 410 -12 q 149 50 194 -12 q 103 215 103 113 m 435 796 q 426 822 428 808 q 424 850 424 836 q 440 908 424 894 q 501 922 457 922 q 560 911 542 922 q 579 850 579 900 q 563 792 579 804 q 503 779 547 779 q 435 796 461 779 m 176 796 q 167 821 169 807 q 165 850 165 835 q 186 909 165 896 q 243 922 207 922 q 303 908 286 922 q 321 850 321 894 q 303 792 321 806 q 242 779 286 779 q 176 796 199 779 z "},"ý":{"ha":650,"x_min":7,"x_max":633,"o":"m 633 674 l 450 22 q 398 -127 425 -65 q 335 -228 371 -189 q 252 -285 300 -267 q 140 -303 204 -303 q 107 -301 129 -303 q 63 -297 85 -300 q 24 -288 40 -293 q 7 -275 7 -283 q 15 -222 7 -251 q 39 -178 24 -193 q 147 -196 85 -196 q 244 -153 207 -196 q 308 -24 282 -111 l 313 -7 q 243 10 268 -6 q 206 68 218 26 l 22 675 q 110 696 72 696 q 182 632 164 696 l 276 313 q 296 240 283 290 q 328 108 308 189 q 340 99 329 99 l 493 686 q 519 690 504 689 q 551 692 533 692 q 591 690 571 692 q 629 682 611 688 l 633 674 m 219 806 l 419 1026 q 481 989 451 1015 q 521 932 510 963 l 283 747 q 246 769 264 753 q 219 806 228 786 z "},"þ":{"ha":733,"x_min":108,"x_max":672,"o":"m 408 -12 q 247 33 328 -12 l 247 -207 q 231 -278 247 -257 q 169 -299 214 -299 l 117 -299 l 108 -290 l 108 1013 l 117 1021 l 169 1021 q 231 1000 214 1021 q 247 929 247 979 l 247 619 q 436 697 329 697 q 610 602 547 697 q 672 342 672 507 q 651 192 672 258 q 593 81 629 126 q 509 12 557 36 q 408 -12 461 -12 m 400 578 q 247 488 310 578 l 247 153 q 383 103 325 103 q 488 166 449 103 q 526 347 526 229 q 490 522 526 465 q 400 578 454 578 z "},"ÿ":{"ha":650,"x_min":7,"x_max":633,"o":"m 633 674 l 450 22 q 398 -127 425 -65 q 335 -228 371 -189 q 252 -285 300 -267 q 140 -303 204 -303 q 107 -301 129 -303 q 63 -297 85 -300 q 24 -288 40 -293 q 7 -275 7 -283 q 15 -222 7 -251 q 39 -178 24 -193 q 147 -196 85 -196 q 244 -153 207 -196 q 308 -24 282 -111 l 313 -7 q 243 10 268 -6 q 206 68 218 26 l 22 675 q 110 696 72 696 q 182 632 164 696 l 276 313 q 296 240 283 290 q 328 108 308 189 q 340 99 329 99 l 493 686 q 519 690 504 689 q 551 692 533 692 q 591 690 571 692 q 629 682 611 688 l 633 674 m 386 796 q 377 822 379 808 q 375 850 375 836 q 392 908 375 894 q 453 922 408 922 q 512 911 493 922 q 531 850 531 900 q 515 792 531 804 q 454 779 499 779 q 386 796 413 779 m 128 796 q 119 821 121 807 q 117 850 117 835 q 138 909 117 896 q 194 922 158 922 q 255 908 238 922 q 272 850 272 894 q 255 792 272 806 q 193 779 238 779 q 128 796 150 779 z "},"Ą":{"ha":849,"x_min":28,"x_max":881,"o":"m 322 229 l 242 229 l 168 -1 q 142 -6 157 -4 q 110 -7 126 -7 q 71 -5 90 -7 q 32 3 51 -3 l 28 10 l 342 949 q 426 954 368 954 q 510 949 486 954 l 821 10 q 699 -143 699 -67 q 717 -190 699 -172 q 768 -207 736 -207 q 847 -183 804 -207 q 881 -253 878 -206 q 746 -301 824 -301 q 625 -267 667 -301 q 583 -172 583 -232 q 683 4 583 -82 q 647 68 663 19 l 596 231 l 513 229 l 322 229 m 279 350 l 489 351 q 558 350 517 350 l 494 551 q 451 692 469 631 q 421 803 433 754 l 414 803 q 392 714 404 764 q 360 601 379 664 l 279 350 z "},"ą":{"ha":746,"x_min":60,"x_max":681,"o":"m 647 -183 q 681 -253 678 -206 q 546 -301 624 -301 q 426 -267 467 -301 q 385 -172 385 -232 q 513 28 385 -62 q 476 78 489 51 q 272 -18 378 -18 q 180 -1 219 -18 q 113 44 140 15 q 73 109 86 72 q 60 186 60 146 q 133 358 60 300 q 326 417 206 417 q 394 415 361 417 q 460 407 428 413 l 460 461 q 346 585 460 585 q 128 532 267 585 q 86 636 88 567 q 374 700 228 700 q 542 642 482 700 q 601 468 601 585 l 601 183 q 646 67 601 103 q 583 -15 633 26 q 499 -143 499 -86 q 517 -190 499 -172 q 568 -207 536 -207 q 647 -183 604 -207 m 296 96 q 460 179 385 96 l 460 311 q 401 315 432 314 q 338 317 371 317 q 238 285 274 317 q 203 203 203 254 q 228 124 203 153 q 296 96 253 96 z "},"Ć":{"ha":839,"x_min":68,"x_max":783,"o":"m 639 621 q 628 706 639 665 q 594 778 618 747 q 533 828 571 810 q 442 847 496 847 q 279 751 335 847 q 224 476 224 656 q 283 205 224 299 q 460 111 343 111 q 703 217 576 111 q 776 121 760 179 q 706 65 746 90 q 623 22 667 40 q 533 -8 579 3 q 442 -18 486 -18 q 263 23 335 -18 q 149 131 190 64 q 88 287 108 199 q 68 469 68 375 q 97 688 68 594 q 177 842 126 781 q 296 935 228 904 q 440 967 364 967 q 583 944 519 967 q 691 885 646 922 q 760 799 736 847 q 783 696 783 750 q 700 613 783 613 q 639 621 674 613 m 307 1086 l 589 1253 q 629 1203 610 1238 q 653 1136 649 1169 l 350 1011 q 322 1043 335 1021 q 307 1086 310 1065 z "},"ć":{"ha":654,"x_min":61,"x_max":603,"o":"m 471 421 l 471 436 q 349 593 471 593 q 246 529 282 593 q 210 339 210 465 q 367 100 210 100 q 535 169 444 100 q 572 133 554 158 q 596 85 590 108 q 347 -18 493 -18 q 220 9 274 -18 q 131 85 167 36 q 78 201 96 133 q 61 351 61 269 q 85 502 61 436 q 148 613 108 568 q 240 681 188 657 q 350 704 292 704 q 456 686 410 704 q 535 639 503 668 q 585 572 568 610 q 603 494 603 533 q 531 415 603 415 q 471 421 494 415 m 244 806 l 444 1026 q 506 989 476 1015 q 546 932 535 963 l 308 747 q 271 769 289 753 q 244 806 253 786 z "},"Č":{"ha":839,"x_min":68,"x_max":783,"o":"m 639 621 q 628 706 639 665 q 594 778 618 747 q 533 828 571 810 q 442 847 496 847 q 279 751 335 847 q 224 476 224 656 q 283 205 224 299 q 460 111 343 111 q 703 217 576 111 q 776 121 760 179 q 706 65 746 90 q 623 22 667 40 q 533 -8 579 3 q 442 -18 486 -18 q 263 23 335 -18 q 149 131 190 64 q 88 287 108 199 q 68 469 68 375 q 97 688 68 594 q 177 842 126 781 q 296 935 228 904 q 440 967 364 967 q 583 944 519 967 q 691 885 646 922 q 760 799 736 847 q 783 696 783 750 q 700 613 783 613 q 639 621 674 613 m 289 1239 l 444 1136 l 604 1250 q 643 1225 624 1243 q 668 1188 663 1207 l 508 1031 q 381 1029 442 1017 l 225 1176 q 289 1239 242 1224 z "},"č":{"ha":654,"x_min":61,"x_max":603,"o":"m 471 421 l 471 436 q 349 593 471 593 q 246 529 282 593 q 210 339 210 465 q 367 100 210 100 q 535 169 444 100 q 572 133 554 158 q 596 85 590 108 q 347 -18 493 -18 q 220 9 274 -18 q 131 85 167 36 q 78 201 96 133 q 61 351 61 269 q 85 502 61 436 q 148 613 108 568 q 240 681 188 657 q 350 704 292 704 q 456 686 410 704 q 535 639 503 668 q 585 572 568 610 q 603 494 603 533 q 531 415 603 415 q 471 421 494 415 m 217 1010 l 346 883 l 486 1018 q 553 958 528 1004 l 404 772 q 283 771 356 753 l 147 946 q 217 1010 171 993 z "},"Ď":{"ha":900,"x_min":126,"x_max":829,"o":"m 682 64 q 633 34 661 47 q 571 12 604 21 q 503 -2 538 3 q 439 -7 469 -7 q 332 -6 407 -7 q 135 -1 257 -4 l 126 8 l 126 940 l 135 950 q 440 954 256 954 q 628 917 553 954 q 748 814 703 879 q 811 660 793 749 q 829 472 829 572 q 799 234 829 333 q 682 64 769 135 m 440 835 l 274 835 l 274 113 l 440 113 q 676 474 676 113 q 617 749 676 663 q 440 835 558 835 m 271 1239 l 426 1136 l 586 1250 q 625 1225 606 1243 q 650 1188 644 1207 l 490 1031 q 363 1029 424 1017 l 207 1176 q 271 1239 224 1224 z "},"ď":{"ha":829,"x_min":61,"x_max":860,"o":"m 328 697 q 485 651 403 697 l 485 1013 l 494 1021 l 549 1021 q 608 1000 592 1021 q 625 929 625 979 l 625 196 q 664 64 625 99 q 643 22 658 44 q 611 -10 628 0 q 501 76 532 6 q 301 -18 419 -18 q 122 77 183 -18 q 61 342 61 172 q 83 492 61 426 q 140 604 104 558 q 225 674 176 650 q 328 697 274 697 m 333 101 q 485 189 424 101 l 485 533 q 350 583 407 583 q 247 521 288 583 q 207 336 207 458 q 243 158 207 215 q 333 101 279 101 m 711 786 l 728 1083 q 796 1085 756 1090 q 860 1063 836 1079 l 794 779 q 750 774 775 772 q 711 786 725 776 z "},"Ę":{"ha":792,"x_min":125,"x_max":721,"o":"m 271 192 l 269 121 q 361 125 311 125 l 721 125 q 710 45 721 72 q 665 4 699 18 q 572 -60 607 -19 q 538 -137 538 -101 q 604 -206 538 -206 q 686 -183 643 -206 q 718 -253 718 -211 q 583 -301 661 -301 q 463 -267 504 -301 q 422 -171 422 -233 q 521 -1 422 -75 l 210 -1 q 148 23 171 -1 q 125 90 125 47 l 125 940 l 135 949 l 693 949 q 697 897 697 928 q 695 858 697 878 q 686 824 693 839 l 269 824 l 269 539 l 346 540 l 618 540 q 625 478 625 513 q 618 418 625 443 l 357 418 q 308 418 329 418 q 271 419 286 418 l 271 192 z "},"ę":{"ha":694,"x_min":61,"x_max":626,"o":"m 381 -17 l 347 -18 q 214 10 268 -18 q 126 86 160 38 q 76 202 92 135 q 61 347 61 269 q 81 490 61 424 q 136 603 100 556 q 226 677 172 650 q 346 704 279 704 q 465 682 413 704 q 553 620 517 660 q 608 526 589 581 q 626 407 626 471 q 624 352 626 379 q 617 297 622 325 l 208 297 q 249 150 213 201 q 374 99 286 99 q 463 111 415 99 q 563 151 511 124 q 608 60 597 119 q 513 11 565 29 q 415 -143 415 -61 q 434 -189 415 -171 q 485 -207 453 -207 q 564 -183 521 -207 q 596 -253 596 -211 q 461 -301 539 -301 q 341 -268 382 -301 q 300 -161 300 -235 q 381 -17 300 -89 m 350 597 q 208 401 218 597 l 489 401 l 489 419 q 455 548 489 499 q 350 597 421 597 z "},"Ě":{"ha":786,"x_min":125,"x_max":721,"o":"m 271 192 l 269 121 q 361 125 311 125 l 721 125 q 717 68 721 88 q 622 -1 704 -1 l 210 -1 q 148 23 171 -1 q 125 90 125 47 l 125 940 l 135 949 l 693 949 q 697 890 697 926 q 686 824 697 853 l 269 824 l 271 733 l 271 539 l 357 540 l 618 540 q 625 478 625 515 q 618 418 625 442 l 357 418 q 271 419 303 418 l 271 192 m 257 1239 l 413 1136 l 572 1250 q 611 1225 592 1243 q 636 1188 631 1207 l 476 1031 q 349 1029 410 1017 l 193 1176 q 257 1239 210 1224 z "},"ě":{"ha":694,"x_min":61,"x_max":626,"o":"m 617 297 l 208 297 q 249 150 213 201 q 374 99 286 99 q 463 111 415 99 q 563 151 511 124 q 608 60 597 119 q 347 -18 497 -18 q 214 10 268 -18 q 126 86 160 38 q 76 202 92 135 q 61 347 61 269 q 81 490 61 424 q 136 603 100 556 q 226 677 172 650 q 346 704 279 704 q 465 682 413 704 q 553 620 517 660 q 608 526 589 581 q 626 407 626 471 q 624 352 626 379 q 617 297 622 325 m 350 597 q 208 401 218 597 l 489 401 l 489 419 q 455 548 489 499 q 350 597 421 597 m 224 1010 l 353 883 l 493 1018 q 560 958 535 1004 l 411 772 q 290 771 363 753 l 154 946 q 224 1010 178 993 z "},"Ħ":{"ha":950,"x_min":26,"x_max":922,"o":"m 279 426 l 281 324 l 281 0 q 205 -6 249 -6 q 132 0 161 -6 l 132 686 l 33 686 q 26 743 26 717 q 33 801 26 769 l 132 801 l 132 949 q 205 954 161 954 q 281 949 249 954 l 281 801 l 669 801 l 669 949 q 742 954 699 954 q 818 949 786 954 l 818 801 l 917 801 q 922 742 922 775 q 917 686 922 710 l 818 686 l 818 0 q 742 -6 786 -6 q 669 0 699 -6 l 669 324 l 671 426 l 592 425 l 358 425 l 279 426 m 279 550 l 358 551 l 592 551 l 671 550 l 669 653 l 669 686 l 281 686 l 281 653 l 279 550 z "},"ħ":{"ha":760,"x_min":8,"x_max":679,"o":"m 253 929 l 253 885 l 475 888 q 479 863 478 875 q 481 838 481 850 q 479 813 481 825 q 475 789 478 800 l 253 792 l 253 606 q 472 697 354 697 q 611 635 565 697 q 657 469 657 574 l 657 147 q 679 21 657 64 q 594 -10 643 -10 q 531 13 549 -10 q 514 82 514 36 l 514 435 q 495 538 514 507 q 431 568 476 568 q 337 544 385 568 q 253 482 289 521 l 253 0 q 221 -4 239 -3 q 183 -6 203 -6 q 145 -4 164 -6 q 113 0 126 -3 l 113 790 l 15 789 q 10 815 11 804 q 8 838 8 826 q 10 860 8 849 q 15 888 11 872 l 113 886 l 113 1013 l 121 1021 l 176 1021 q 236 1000 219 1021 q 253 929 253 979 z "},"Ĩ":{"ha":408,"x_min":-46,"x_max":457,"o":"m 131 0 l 131 949 q 203 954 158 954 q 278 949 249 954 l 278 0 q 203 -6 249 -6 q 131 0 158 -6 m 221 1050 l 143 1088 q 119 1097 131 1093 q 97 1100 108 1100 q 70 1092 82 1101 q 43 1065 58 1083 l 26 1046 q -16 1058 6 1046 q -46 1089 -37 1071 l -33 1117 q 28 1192 -11 1165 q 111 1218 67 1218 q 190 1196 151 1218 l 268 1160 q 288 1151 278 1154 q 310 1147 299 1147 q 368 1182 338 1146 l 385 1201 q 457 1157 436 1200 l 444 1131 q 303 1029 397 1029 q 221 1050 268 1029 z "},"ĩ":{"ha":376,"x_min":-69,"x_max":422,"o":"m 271 567 l 271 0 q 199 -6 244 -6 q 128 0 154 -6 l 128 508 q 114 564 128 547 q 67 581 100 581 l 51 581 q 44 632 44 611 q 51 685 44 653 q 139 690 97 690 l 158 690 q 241 657 211 690 q 271 567 271 624 m 192 793 l 115 831 q 95 840 106 836 q 74 843 85 843 q 17 808 42 844 l 1 789 q -40 801 -19 789 q -69 833 -61 814 l -57 861 q 82 963 -11 963 q 161 942 119 963 l 238 903 q 257 894 247 897 q 278 890 267 890 q 306 898 292 890 q 336 926 321 906 l 351 946 q 393 933 372 946 q 422 901 414 919 l 410 874 q 271 772 364 772 q 192 793 235 772 z "},"ı":{"ha":376,"x_min":44,"x_max":271,"o":"m 271 567 l 271 0 q 199 -6 244 -6 q 128 0 154 -6 l 128 508 q 114 564 128 547 q 67 581 100 581 l 51 581 q 44 632 44 611 q 51 685 44 653 q 139 690 97 690 l 158 690 q 241 657 211 690 q 271 567 271 624 z "},"Ĳ":{"ha":1028,"x_min":131,"x_max":919,"o":"m 131 0 l 131 949 q 203 954 158 954 q 278 949 249 954 l 278 0 q 203 -6 249 -6 q 131 0 158 -6 m 475 156 q 629 110 551 110 q 740 160 707 110 q 772 325 772 210 l 772 949 q 846 954 801 954 q 919 949 890 954 l 919 346 q 908 202 919 261 q 868 92 897 143 q 636 -14 810 -14 q 419 44 514 -14 q 475 156 431 108 z "},"ĳ":{"ha":758,"x_min":44,"x_max":651,"o":"m 271 567 l 271 0 q 199 -6 244 -6 q 128 0 154 -6 l 128 508 q 114 564 128 547 q 67 581 100 581 l 51 581 q 44 632 44 611 q 51 685 44 653 q 139 690 97 690 l 158 690 q 241 657 211 690 q 271 567 271 624 m 97 815 q 85 876 85 840 q 106 944 85 933 q 175 956 126 954 q 246 942 231 954 q 263 876 261 929 q 246 813 261 826 q 175 797 231 799 q 97 815 121 797 m 651 567 l 651 25 q 639 -131 651 -72 q 601 -225 626 -190 q 539 -276 576 -260 q 451 -304 501 -292 q 410 -217 415 -271 q 458 -187 439 -203 q 489 -152 478 -172 q 505 -106 500 -132 q 510 -44 510 -81 l 510 508 q 497 564 510 547 q 450 581 483 581 l 422 581 q 417 608 418 596 q 415 632 415 619 q 417 656 415 643 q 422 685 418 668 q 472 689 447 688 q 524 690 497 690 l 542 690 q 622 658 593 690 q 651 567 651 625 m 478 815 q 465 876 465 840 q 480 940 465 926 q 556 956 494 953 q 621 945 603 951 q 643 876 639 939 q 625 810 639 818 q 556 797 611 801 q 478 815 501 797 z "},"Ĵ":{"ha":622,"x_min":14,"x_max":660,"o":"m 69 156 q 224 110 146 110 q 334 160 301 110 q 367 325 367 210 l 367 949 q 440 954 396 954 q 514 949 485 954 l 514 346 q 503 202 514 261 q 463 92 492 143 q 231 -14 404 -14 q 14 44 108 -14 q 69 156 25 108 m 597 1024 l 440 1128 l 281 1013 q 243 1038 263 1019 q 218 1076 224 1057 l 376 1233 q 504 1233 442 1246 l 660 1086 q 634 1047 653 1064 q 597 1024 615 1029 z "},"ĵ":{"ha":386,"x_min":-19,"x_max":385,"o":"m 279 567 l 279 25 q 231 -221 279 -165 q 79 -304 182 -279 q 38 -217 44 -271 q 117 -152 96 -187 q 138 -44 138 -117 l 138 508 q 124 564 138 547 q 78 581 111 581 l 50 581 q 43 632 43 611 q 50 685 43 653 q 151 690 100 690 l 169 690 q 250 657 221 690 q 279 567 279 624 m 315 758 l 186 885 l 47 751 q -19 811 4 768 l 128 996 q 249 997 181 1014 l 385 822 q 315 758 364 776 z "},"Ķ":{"ha":828,"x_min":126,"x_max":806,"o":"m 806 39 q 706 -8 775 -8 q 645 12 665 -8 q 608 81 625 32 l 533 285 q 467 394 504 363 q 373 426 429 426 q 274 424 317 426 l 274 0 q 199 -6 244 -6 q 126 0 154 -6 l 126 949 q 199 954 154 954 q 274 949 244 954 l 274 550 l 351 553 q 381 561 371 553 q 404 592 392 569 l 582 893 q 619 940 601 926 q 674 953 636 953 q 756 949 711 953 l 765 936 l 556 581 q 500 511 529 536 q 602 458 565 499 q 668 340 639 418 l 743 139 q 806 39 771 67 m 511 -81 q 525 -153 525 -114 q 479 -278 525 -222 q 353 -365 433 -335 q 306 -304 315 -354 q 389 -171 389 -250 q 371 -99 389 -132 q 439 -75 399 -81 q 511 -81 479 -69 z "},"ķ":{"ha":697,"x_min":108,"x_max":674,"o":"m 560 258 l 607 143 q 674 35 639 58 q 578 -10 635 -10 q 522 9 542 -10 q 486 71 503 28 l 431 207 q 384 280 408 261 q 326 299 360 299 q 249 296 293 299 l 249 0 q 179 -6 222 -6 q 108 0 136 -6 l 108 1013 l 117 1021 l 172 1021 q 232 1000 215 1021 q 249 929 249 979 l 249 415 l 296 418 q 329 438 318 418 l 451 629 q 540 690 486 690 q 621 689 594 690 l 629 678 l 478 438 q 432 383 457 404 q 560 258 518 361 m 449 -81 q 463 -153 463 -114 q 417 -278 463 -222 q 290 -365 371 -335 q 243 -304 253 -354 q 326 -171 326 -250 q 308 -99 326 -132 q 376 -75 336 -81 q 449 -81 417 -69 z "},"ĸ":{"ha":697,"x_min":108,"x_max":674,"o":"m 560 258 l 607 143 q 674 35 639 58 q 578 -10 635 -10 q 522 9 542 -10 q 486 71 503 28 l 431 207 q 384 280 408 261 q 326 299 360 299 q 249 296 293 299 l 249 0 q 179 -6 222 -6 q 108 0 136 -6 l 108 683 l 117 692 l 172 692 q 232 671 215 692 q 249 600 249 650 l 249 415 l 296 418 q 329 438 318 418 l 451 629 q 540 690 486 690 q 621 689 594 690 l 629 678 l 478 438 q 432 383 457 404 q 560 258 518 361 z "},"Ŀ":{"ha":711,"x_min":125,"x_max":674,"o":"m 397 128 l 674 128 q 669 69 674 97 q 574 -1 657 -1 l 211 -1 q 149 23 172 -1 q 125 90 125 47 l 125 946 l 135 954 l 190 954 q 255 932 236 954 q 274 860 274 910 l 274 122 q 397 128 331 128 m 478 556 q 551 574 504 574 q 588 571 572 574 q 615 562 603 568 q 630 538 626 556 q 633 492 633 521 q 630 444 633 463 q 617 422 626 426 q 590 413 607 417 q 551 408 574 408 q 508 414 526 408 q 482 424 489 419 q 472 446 475 428 q 468 492 468 464 q 478 556 468 538 z "},"ŀ":{"ha":486,"x_min":106,"x_max":500,"o":"m 301 107 l 353 107 q 365 46 365 72 q 361 4 365 19 q 243 -6 306 -6 q 106 138 106 -6 l 106 1013 l 115 1021 l 169 1021 q 230 999 213 1021 q 247 929 247 978 l 247 169 q 301 107 247 107 m 344 556 q 418 574 371 574 q 454 571 439 574 q 481 562 469 568 q 497 538 493 556 q 500 492 500 521 q 497 444 500 463 q 483 422 493 426 q 457 413 474 417 q 418 408 440 408 q 374 414 393 408 q 349 424 356 419 q 338 446 342 428 q 335 492 335 464 q 344 556 335 538 z "},"Ł":{"ha":719,"x_min":13,"x_max":682,"o":"m 282 860 l 282 560 l 526 643 l 538 638 q 540 525 553 592 l 282 440 l 282 122 q 406 128 339 128 l 682 128 q 678 69 682 88 q 582 -1 667 -1 l 221 -1 q 158 22 182 -1 q 135 90 135 46 l 135 396 l 39 363 l 29 368 q 26 481 13 421 l 135 518 l 135 946 l 143 954 l 200 954 q 263 932 244 954 q 282 860 282 910 z "},"ł":{"ha":460,"x_min":25,"x_max":421,"o":"m 342 107 l 393 107 q 404 45 404 76 q 401 4 404 14 q 283 -6 346 -6 q 147 138 147 -6 l 147 424 l 50 374 l 39 379 q 38 488 25 432 l 147 544 l 147 1013 l 156 1021 l 208 1021 q 269 1000 253 1021 q 286 929 286 979 l 286 617 l 396 675 l 407 669 q 408 561 421 617 l 286 497 l 286 169 q 342 107 286 107 z "},"Ń":{"ha":944,"x_min":126,"x_max":818,"o":"m 810 954 l 818 947 l 818 1 q 729 -6 779 -6 q 640 0 679 -6 l 344 582 q 257 775 300 675 l 251 774 q 264 433 264 558 l 264 0 q 194 -6 231 -6 q 126 0 158 -6 l 126 947 q 215 954 165 954 q 303 949 264 954 l 596 367 q 647 253 615 325 q 688 165 679 182 l 693 167 q 682 517 682 344 l 682 863 q 699 933 682 913 q 761 954 717 954 l 810 954 m 336 1086 l 618 1253 q 658 1203 639 1238 q 682 1136 678 1169 l 379 1011 q 351 1043 364 1021 q 336 1086 339 1065 z "},"ń":{"ha":758,"x_min":108,"x_max":679,"o":"m 656 471 l 656 147 q 679 21 656 65 q 594 -10 643 -10 q 530 13 547 -10 q 513 82 513 36 l 513 435 q 494 538 513 507 q 429 568 475 568 q 335 545 383 568 q 251 482 288 522 l 251 0 q 181 -6 228 -6 q 140 -4 158 -6 q 108 0 122 -3 l 108 683 l 117 692 l 171 692 q 250 606 246 692 q 471 699 351 699 q 610 637 564 699 q 656 471 656 575 m 282 806 l 482 1026 q 543 989 514 1015 q 583 932 572 963 l 346 747 q 308 769 326 753 q 282 806 290 786 z "},"Ň":{"ha":944,"x_min":126,"x_max":818,"o":"m 810 954 l 818 947 l 818 1 q 729 -6 779 -6 q 640 0 679 -6 l 344 582 q 257 775 300 675 l 251 774 q 264 433 264 558 l 264 0 q 194 -6 231 -6 q 126 0 158 -6 l 126 947 q 215 954 165 954 q 303 949 264 954 l 596 367 q 647 253 615 325 q 688 165 679 182 l 693 167 q 682 517 682 344 l 682 863 q 699 933 682 913 q 761 954 717 954 l 810 954 m 318 1239 l 474 1136 l 633 1250 q 672 1225 653 1243 q 697 1188 692 1207 l 538 1031 q 410 1029 471 1017 l 254 1176 q 318 1239 271 1224 z "},"ň":{"ha":758,"x_min":108,"x_max":679,"o":"m 656 471 l 656 147 q 679 21 656 65 q 594 -10 643 -10 q 530 13 547 -10 q 513 82 513 36 l 513 435 q 494 538 513 507 q 429 568 475 568 q 335 545 383 568 q 251 482 288 522 l 251 0 q 181 -6 228 -6 q 140 -4 158 -6 q 108 0 122 -3 l 108 683 l 117 692 l 171 692 q 250 606 246 692 q 471 699 351 699 q 610 637 564 699 q 656 471 656 575 m 256 1010 l 385 883 l 525 1018 q 592 958 567 1004 l 443 772 q 322 771 394 753 l 186 946 q 256 1010 210 993 z "},"Œ":{"ha":1244,"x_min":67,"x_max":1185,"o":"m 733 192 l 732 122 q 783 124 760 124 q 825 125 806 125 l 1185 125 q 1164 28 1185 58 q 1086 -1 1143 -1 l 636 -1 q 458 -18 508 -18 q 286 21 360 -18 q 164 126 213 60 q 91 283 115 193 q 67 474 67 372 q 91 665 67 575 q 164 822 115 756 q 286 928 213 889 q 458 967 360 967 q 523 963 479 967 q 633 949 567 958 l 1157 949 q 1161 897 1161 928 q 1159 858 1161 878 q 1150 824 1157 839 l 732 824 l 733 538 l 821 540 l 1082 540 q 1089 478 1089 513 q 1082 418 1089 443 l 821 418 q 771 418 793 418 q 733 419 749 418 l 733 192 m 590 118 l 590 831 q 520 844 553 839 q 458 849 488 849 q 346 817 392 849 q 273 733 300 785 q 234 613 246 681 q 222 475 222 546 q 233 333 222 401 q 273 213 244 265 q 350 130 301 161 q 474 99 399 99 q 590 118 528 99 z "},"œ":{"ha":1151,"x_min":61,"x_max":1085,"o":"m 1075 297 l 669 297 q 708 151 674 204 q 832 99 743 99 q 1021 151 918 99 q 1067 61 1056 121 q 806 -18 958 -18 q 586 94 653 -18 q 361 -18 515 -18 q 234 8 290 -18 q 140 81 178 33 q 81 194 101 128 q 61 342 61 260 q 81 491 61 424 q 140 606 101 558 q 233 678 178 653 q 361 704 289 704 q 589 585 515 704 q 800 704 663 704 q 922 682 869 704 q 1011 620 975 660 q 1066 526 1047 581 q 1085 407 1085 471 q 1083 352 1085 379 q 1075 297 1081 325 m 361 594 q 210 343 210 594 q 361 92 210 92 q 514 343 514 92 q 361 594 514 594 m 810 597 q 669 401 679 597 l 946 401 l 946 418 q 913 548 946 499 q 810 597 881 597 z "},"Ŕ":{"ha":833,"x_min":126,"x_max":793,"o":"m 135 950 l 433 954 q 665 880 581 954 q 749 669 749 806 q 699 509 749 576 q 571 417 650 442 q 669 299 636 393 l 731 136 q 793 36 757 64 q 693 -10 763 -10 q 634 11 654 -10 q 596 81 614 32 l 526 268 q 476 353 506 324 q 386 382 446 382 l 272 382 l 272 0 q 199 -6 243 -6 q 126 0 154 -6 l 126 940 l 135 950 m 272 839 l 272 500 q 426 503 381 503 q 558 550 519 503 q 596 669 596 597 q 426 838 596 838 q 272 839 319 838 m 274 1086 l 556 1253 q 596 1203 576 1238 q 619 1136 615 1169 l 317 1011 q 289 1043 301 1021 q 274 1086 276 1065 z "},"ŕ":{"ha":511,"x_min":69,"x_max":504,"o":"m 69 619 q 122 696 83 671 q 249 572 218 675 q 431 696 304 696 q 504 688 464 696 q 469 551 504 607 q 413 558 457 556 q 264 453 318 558 l 264 0 q 192 -6 238 -6 q 121 0 147 -6 l 121 476 q 69 619 121 571 m 175 806 l 375 1026 q 436 989 407 1015 q 476 932 465 963 l 239 747 q 201 769 219 753 q 175 806 183 786 z "},"Ŗ":{"ha":833,"x_min":126,"x_max":793,"o":"m 135 950 l 433 954 q 665 880 581 954 q 749 669 749 806 q 699 509 749 576 q 571 417 650 442 q 669 299 636 393 l 731 136 q 793 36 757 64 q 693 -10 763 -10 q 634 11 654 -10 q 596 81 614 32 l 526 268 q 476 353 506 324 q 386 382 446 382 l 272 382 l 272 0 q 199 -6 243 -6 q 126 0 154 -6 l 126 940 l 135 950 m 272 839 l 272 500 q 426 503 381 503 q 558 550 519 503 q 596 669 596 597 q 426 838 596 838 q 272 839 319 838 m 510 -81 q 524 -153 524 -114 q 478 -278 524 -222 q 351 -365 432 -335 q 304 -304 314 -354 q 388 -171 388 -250 q 369 -99 388 -132 q 438 -75 397 -81 q 510 -81 478 -69 z "},"ŗ":{"ha":511,"x_min":67,"x_max":504,"o":"m 69 619 q 122 696 83 671 q 249 572 218 675 q 431 696 304 696 q 504 688 464 696 q 469 551 504 607 q 413 558 457 556 q 264 453 318 558 l 264 0 q 192 -6 238 -6 q 121 0 147 -6 l 121 476 q 69 619 121 571 m 272 -81 q 286 -153 286 -114 q 240 -278 286 -222 q 114 -365 194 -335 q 67 -304 76 -354 q 150 -171 150 -250 q 132 -99 150 -132 q 200 -75 160 -81 q 272 -81 240 -69 z "},"Ř":{"ha":833,"x_min":126,"x_max":793,"o":"m 135 950 l 433 954 q 665 880 581 954 q 749 669 749 806 q 699 509 749 576 q 571 417 650 442 q 669 299 636 393 l 731 136 q 793 36 757 64 q 693 -10 763 -10 q 634 11 654 -10 q 596 81 614 32 l 526 268 q 476 353 506 324 q 386 382 446 382 l 272 382 l 272 0 q 199 -6 243 -6 q 126 0 154 -6 l 126 940 l 135 950 m 272 839 l 272 500 q 426 503 381 503 q 558 550 519 503 q 596 669 596 597 q 426 838 596 838 q 272 839 319 838 m 257 1239 l 413 1136 l 572 1250 q 611 1225 592 1243 q 636 1188 631 1207 l 476 1031 q 349 1029 410 1017 l 193 1176 q 257 1239 210 1224 z "},"ř":{"ha":511,"x_min":69,"x_max":504,"o":"m 69 619 q 122 696 83 671 q 249 572 218 675 q 431 696 304 696 q 504 688 464 696 q 469 551 504 607 q 413 558 457 556 q 264 453 318 558 l 264 0 q 192 -6 238 -6 q 121 0 147 -6 l 121 476 q 69 619 121 571 m 150 1010 l 279 883 l 419 1018 q 486 958 461 1004 l 338 772 q 217 771 289 753 l 81 946 q 150 1010 104 993 z "},"Ś":{"ha":772,"x_min":42,"x_max":715,"o":"m 42 86 q 104 200 47 154 q 383 106 249 106 q 513 142 465 106 q 561 236 561 178 q 435 386 561 332 l 271 457 q 81 697 81 539 q 104 803 81 754 q 169 890 128 853 q 270 947 211 928 q 400 967 329 967 q 689 894 546 967 q 635 779 688 828 q 397 844 501 844 q 276 808 322 844 q 231 721 231 771 q 259 641 231 669 q 346 589 288 613 l 507 519 q 663 412 611 475 q 715 261 715 349 q 628 59 715 136 q 365 -18 542 -18 q 42 86 189 -18 m 260 1086 l 542 1253 q 582 1203 563 1238 q 606 1136 601 1169 l 303 1011 q 275 1043 288 1021 q 260 1086 263 1065 z "},"ś":{"ha":608,"x_min":43,"x_max":558,"o":"m 43 51 q 58 105 44 75 q 90 151 72 135 q 271 90 201 90 q 376 114 342 90 q 410 176 410 138 q 322 271 410 238 l 244 300 q 68 499 68 367 q 137 649 68 594 q 317 704 206 704 q 540 654 429 704 q 528 596 540 626 q 497 549 517 565 q 313 594 399 594 q 240 572 267 594 q 213 517 213 550 q 233 465 213 483 q 299 429 253 447 l 382 397 q 558 189 558 329 q 485 38 558 93 q 285 -18 411 -18 q 43 51 158 -18 m 201 806 l 401 1026 q 463 989 433 1015 q 503 932 492 963 l 265 747 q 228 769 246 753 q 201 806 210 786 z "},"Š":{"ha":772,"x_min":42,"x_max":715,"o":"m 42 86 q 104 200 47 154 q 383 106 249 106 q 513 142 465 106 q 561 236 561 178 q 435 386 561 332 l 271 457 q 81 697 81 539 q 104 803 81 754 q 169 890 128 853 q 270 947 211 928 q 400 967 329 967 q 689 894 546 967 q 635 779 688 828 q 397 844 501 844 q 276 808 322 844 q 231 721 231 771 q 259 641 231 669 q 346 589 288 613 l 507 519 q 663 412 611 475 q 715 261 715 349 q 628 59 715 136 q 365 -18 542 -18 q 42 86 189 -18 m 240 1239 l 396 1136 l 556 1250 q 594 1225 575 1243 q 619 1188 614 1207 l 460 1031 q 332 1029 393 1017 l 176 1176 q 240 1239 193 1224 z "},"š":{"ha":608,"x_min":43,"x_max":558,"o":"m 43 51 q 58 105 44 75 q 90 151 72 135 q 271 90 201 90 q 376 114 342 90 q 410 176 410 138 q 322 271 410 238 l 244 300 q 68 499 68 367 q 137 649 68 594 q 317 704 206 704 q 540 654 429 704 q 528 596 540 626 q 497 549 517 565 q 313 594 399 594 q 240 572 267 594 q 213 517 213 550 q 233 465 213 483 q 299 429 253 447 l 382 397 q 558 189 558 329 q 485 38 558 93 q 285 -18 411 -18 q 43 51 158 -18 m 176 1010 l 306 883 l 446 1018 q 513 958 488 1004 l 364 772 q 243 771 315 753 l 107 946 q 176 1010 131 993 z "},"Ť":{"ha":683,"x_min":18,"x_max":671,"o":"m 497 824 l 417 825 l 417 0 q 342 -6 385 -6 q 268 0 300 -6 l 268 722 l 269 825 l 268 825 l 189 824 l 24 824 q 18 886 18 853 q 24 949 18 919 l 663 949 q 671 885 671 915 q 588 824 671 824 l 497 824 m 183 1239 l 339 1136 l 499 1250 q 538 1225 518 1243 q 563 1188 557 1207 l 403 1031 q 275 1029 336 1017 l 119 1176 q 183 1239 136 1224 z "},"ť":{"ha":507,"x_min":26,"x_max":508,"o":"m 446 688 q 453 633 453 664 q 446 581 453 603 l 275 583 l 275 168 q 332 107 275 107 l 428 107 q 439 45 439 76 q 436 4 439 14 q 281 -6 356 -6 q 135 138 135 -6 l 135 582 l 32 581 q 26 633 26 604 q 32 688 26 661 l 135 685 l 135 807 q 151 878 135 857 q 211 899 168 899 l 265 899 l 275 889 l 275 683 l 446 688 m 360 786 l 376 1083 q 444 1085 404 1090 q 508 1063 485 1079 l 443 779 q 399 774 424 772 q 360 786 374 776 z "},"Ů":{"ha":929,"x_min":114,"x_max":815,"o":"m 815 949 l 815 333 q 721 73 815 164 q 464 -18 626 -18 q 208 72 303 -18 q 114 333 114 163 l 114 946 l 122 954 l 179 954 q 242 932 224 954 q 261 860 261 910 l 261 333 q 313 160 261 219 q 464 101 364 101 q 667 333 667 101 l 667 949 q 701 953 682 951 q 740 954 721 954 q 781 953 761 954 q 815 949 800 951 m 463 926 q 341 972 388 926 q 294 1083 294 1017 q 307 1146 294 1117 q 342 1196 319 1175 q 396 1229 365 1217 q 463 1242 426 1242 q 530 1229 499 1242 q 583 1196 561 1217 q 618 1146 606 1175 q 631 1083 631 1117 q 584 972 631 1017 q 463 926 538 926 m 463 1160 q 410 1136 428 1160 q 392 1083 392 1113 q 410 1032 392 1056 q 463 1008 428 1008 q 514 1032 497 1008 q 531 1083 531 1056 q 515 1136 531 1113 q 463 1160 499 1160 z "},"ů":{"ha":760,"x_min":79,"x_max":689,"o":"m 103 215 l 103 539 q 79 664 103 622 q 169 694 114 694 q 246 604 246 694 l 246 250 q 264 147 246 178 q 328 117 282 117 q 421 140 374 117 q 506 201 468 163 l 506 686 q 576 692 544 692 q 650 686 608 692 l 650 194 q 689 63 650 97 q 635 -10 674 13 q 518 90 547 6 q 286 -12 410 -12 q 149 50 194 -12 q 103 215 103 113 m 372 749 q 305 761 336 749 q 251 795 274 774 q 217 845 229 817 q 204 906 204 874 q 217 968 204 939 q 251 1018 229 997 q 304 1051 274 1039 q 372 1064 335 1064 q 440 1051 410 1064 q 493 1018 471 1039 q 528 968 515 997 q 540 906 540 939 q 528 845 540 874 q 492 795 515 817 q 439 761 469 774 q 372 749 408 749 m 322 960 q 307 935 311 949 q 303 906 303 921 q 322 852 303 874 q 372 831 340 831 q 422 852 403 831 q 442 906 442 874 q 422 960 442 938 q 372 982 403 982 q 322 960 342 982 z "},"Ÿ":{"ha":699,"x_min":13,"x_max":689,"o":"m 421 631 l 547 949 q 611 956 574 956 q 682 944 649 956 l 689 935 l 425 304 l 425 0 q 349 -6 393 -6 q 276 0 304 -6 l 276 307 l 13 932 q 97 958 60 958 q 153 944 135 958 q 185 894 171 929 l 294 628 q 353 454 322 558 l 360 454 q 421 631 375 510 m 435 1153 q 500 1169 460 1169 q 560 1158 539 1169 q 582 1096 582 1147 q 567 1036 582 1050 q 500 1022 551 1022 q 436 1038 451 1022 q 421 1096 421 1054 q 424 1126 421 1111 q 435 1153 428 1142 m 142 1153 q 172 1165 154 1161 q 208 1169 189 1169 q 268 1158 246 1169 q 290 1096 290 1146 q 274 1036 290 1050 q 208 1022 257 1022 q 142 1041 156 1022 q 129 1096 129 1060 q 142 1153 129 1128 z "},"Ź":{"ha":781,"x_min":67,"x_max":715,"o":"m 86 157 l 436 683 q 546 831 450 704 l 542 835 q 325 824 481 824 l 101 824 q 96 877 96 846 q 107 949 96 908 l 679 949 q 700 851 700 878 q 681 794 700 824 l 332 272 q 224 124 300 224 l 228 119 q 394 128 315 128 l 539 128 q 703 154 650 128 q 715 82 715 117 q 613 0 715 0 l 85 0 q 67 99 67 69 q 86 157 67 128 m 256 1086 l 538 1253 q 578 1203 558 1238 q 601 1136 597 1169 l 299 1011 q 271 1043 283 1021 q 256 1086 258 1065 z "},"ź":{"ha":619,"x_min":49,"x_max":572,"o":"m 71 135 l 297 443 q 407 578 336 496 l 403 583 q 219 575 344 575 l 74 575 q 68 623 68 593 q 76 686 68 653 l 542 686 q 563 602 563 624 q 544 553 563 581 l 318 246 q 211 111 290 207 l 215 106 q 343 111 275 111 l 410 111 q 558 131 515 111 q 572 68 572 99 q 482 0 572 0 l 68 0 q 49 82 49 58 q 71 135 49 106 m 207 806 l 407 1026 q 468 989 439 1015 q 508 932 497 963 l 271 747 q 233 769 251 753 q 207 806 215 786 z "},"Ż":{"ha":781,"x_min":67,"x_max":715,"o":"m 86 157 l 436 683 q 546 831 450 704 l 542 835 q 325 824 481 824 l 101 824 q 96 877 96 846 q 107 949 96 908 l 679 949 q 700 851 700 878 q 681 794 700 824 l 332 272 q 224 124 300 224 l 228 119 q 394 128 315 128 l 539 128 q 703 154 650 128 q 715 82 715 117 q 613 0 715 0 l 85 0 q 67 99 67 69 q 86 157 67 128 m 318 1174 q 396 1190 347 1190 q 466 1177 449 1190 q 483 1111 483 1164 q 471 1049 483 1065 q 396 1032 458 1032 q 324 1045 342 1032 q 306 1111 306 1058 q 308 1144 306 1128 q 318 1174 311 1161 z "},"ż":{"ha":619,"x_min":49,"x_max":572,"o":"m 71 135 l 297 443 q 407 578 336 496 l 403 583 q 219 575 344 575 l 74 575 q 68 623 68 593 q 76 686 68 653 l 542 686 q 563 602 563 624 q 544 553 563 581 l 318 246 q 211 111 290 207 l 215 106 q 343 111 275 111 l 410 111 q 558 131 515 111 q 572 68 572 99 q 482 0 572 0 l 68 0 q 49 82 49 58 q 71 135 49 106 m 235 815 q 222 876 222 840 q 243 944 222 933 q 313 956 264 954 q 383 942 368 954 q 400 876 399 929 q 383 813 399 826 q 313 797 368 799 q 235 815 258 797 z "},"":{"ha":781,"x_min":67,"x_max":715,"o":"m 86 157 l 436 683 q 546 831 450 704 l 542 835 q 325 824 481 824 l 101 824 q 96 877 96 846 q 107 949 96 908 l 679 949 q 700 851 700 878 q 681 794 700 824 l 332 272 q 224 124 300 224 l 228 119 q 394 128 315 128 l 539 128 q 703 154 650 128 q 715 82 715 117 q 613 0 715 0 l 85 0 q 67 99 67 69 q 86 157 67 128 m 236 1239 l 392 1136 l 551 1250 q 590 1225 571 1243 q 615 1188 610 1207 l 456 1031 q 328 1029 389 1017 l 172 1176 q 236 1239 189 1224 z "},"":{"ha":619,"x_min":49,"x_max":572,"o":"m 71 135 l 297 443 q 407 578 336 496 l 403 583 q 219 575 344 575 l 74 575 q 68 623 68 593 q 76 686 68 653 l 542 686 q 563 602 563 624 q 544 553 563 581 l 318 246 q 211 111 290 207 l 215 106 q 343 111 275 111 l 410 111 q 558 131 515 111 q 572 68 572 99 q 482 0 572 0 l 68 0 q 49 82 49 58 q 71 135 49 106 m 181 1010 l 310 883 l 450 1018 q 517 958 492 1004 l 368 772 q 247 771 319 753 l 111 946 q 181 1010 135 993 z "},"ȷ":{"ha":386,"x_min":38,"x_max":279,"o":"m 279 567 l 279 25 q 231 -221 279 -165 q 79 -304 182 -279 q 38 -217 44 -271 q 117 -152 96 -187 q 138 -44 138 -117 l 138 508 q 124 564 138 547 q 78 581 111 581 l 50 581 q 43 632 43 611 q 50 685 43 653 q 151 690 100 690 l 169 690 q 250 657 221 690 q 279 567 279 624 z "},"ˆ":{"ha":553,"x_min":74,"x_max":478,"o":"m 408 758 l 279 885 l 140 751 q 74 811 97 768 l 221 996 q 342 997 274 1014 l 478 822 q 408 758 457 776 z "},"ˇ":{"ha":553,"x_min":76,"x_max":482,"o":"m 146 1010 l 275 883 l 415 1018 q 482 958 457 1004 l 333 772 q 213 771 285 753 l 76 946 q 146 1010 100 993 z "},"˙":{"ha":553,"x_min":188,"x_max":365,"o":"m 200 815 q 188 876 188 840 q 208 944 188 933 q 278 956 229 954 q 349 942 333 954 q 365 876 364 929 q 349 813 364 826 q 278 797 333 799 q 200 815 224 797 z "},"˚":{"ha":553,"x_min":108,"x_max":444,"o":"m 276 749 q 209 761 240 749 q 156 795 178 774 q 121 845 133 817 q 108 906 108 874 q 121 968 108 939 q 156 1018 133 997 q 208 1051 178 1039 q 276 1064 239 1064 q 344 1051 314 1064 q 397 1018 375 1039 q 432 968 419 997 q 444 906 444 939 q 432 845 444 874 q 397 795 419 817 q 343 761 374 774 q 276 749 313 749 m 226 960 q 211 935 215 949 q 207 906 207 921 q 226 852 207 874 q 276 831 244 831 q 326 852 307 831 q 346 906 346 874 q 326 960 346 938 q 276 982 307 982 q 226 960 246 982 z "},"˜":{"ha":553,"x_min":31,"x_max":522,"o":"m 292 793 l 215 831 q 195 840 206 836 q 174 843 185 843 q 117 808 142 844 l 101 789 q 60 801 81 789 q 31 833 39 814 l 43 861 q 182 963 89 963 q 261 942 219 963 l 338 903 q 357 894 347 897 q 378 890 367 890 q 406 898 392 890 q 436 926 421 906 l 451 946 q 493 933 472 946 q 522 901 514 919 l 510 874 q 371 772 464 772 q 292 793 335 772 z "},"μ":{"ha":769,"x_min":85,"x_max":697,"o":"m 658 686 l 658 194 q 697 63 658 97 q 643 -10 682 13 q 532 81 563 4 q 356 -14 464 -14 q 242 25 289 -14 l 242 -207 q 228 -279 242 -256 q 167 -303 214 -303 q 85 -275 121 -303 q 108 -149 108 -233 l 108 686 q 178 692 147 692 q 250 686 208 692 l 250 250 q 283 148 250 185 q 372 111 317 111 q 515 194 454 111 l 515 686 q 585 692 554 692 q 658 686 617 692 z "},"–":{"ha":738,"x_min":85,"x_max":653,"o":"m 647 310 l 90 310 q 85 367 85 333 q 90 426 85 400 l 647 426 q 653 367 653 400 q 647 310 653 333 z "},"—":{"ha":1110,"x_min":104,"x_max":1006,"o":"m 999 310 l 110 310 q 104 367 104 333 q 110 426 104 400 l 999 426 q 1006 367 1006 401 q 999 310 1006 332 z "},"‘":{"ha":317,"x_min":58,"x_max":281,"o":"m 75 719 q 58 811 58 757 q 105 962 58 896 q 243 1061 151 1028 q 281 1003 281 1042 l 281 990 q 183 872 188 947 q 244 851 232 869 q 256 788 256 833 q 249 738 256 756 q 231 713 243 721 q 199 703 218 704 q 156 701 181 701 q 75 719 99 701 z "},"’":{"ha":317,"x_min":35,"x_max":257,"o":"m 242 1042 q 257 935 257 1004 q 245 864 257 899 q 210 798 233 829 q 153 741 188 767 q 74 699 119 715 q 45 725 56 707 q 36 769 35 743 q 133 888 129 815 q 89 897 104 892 q 69 913 74 903 q 63 937 64 922 q 61 971 61 951 q 67 1025 61 1004 q 88 1050 74 1046 q 119 1057 101 1054 q 161 1060 138 1060 q 242 1042 215 1060 z "},"‚":{"ha":318,"x_min":40,"x_max":263,"o":"m 247 140 q 263 35 263 107 q 251 -37 263 -1 q 216 -103 239 -72 q 159 -160 193 -135 q 79 -201 125 -185 q 51 -174 61 -193 q 40 -131 40 -156 q 109 -81 81 -112 q 139 -12 138 -50 q 95 -3 110 -8 q 76 13 81 3 q 69 37 71 22 q 67 72 67 51 q 73 122 67 103 q 92 147 79 142 q 124 156 106 153 q 165 160 142 160 q 247 140 219 160 z "},"“":{"ha":586,"x_min":57,"x_max":549,"o":"m 74 719 q 57 811 57 757 q 103 962 57 896 q 242 1061 150 1028 q 279 1003 279 1042 l 279 990 q 182 872 186 947 q 242 851 231 869 q 254 788 254 833 q 248 738 254 756 q 229 713 242 721 q 198 703 217 704 q 154 701 179 701 q 74 719 97 701 m 343 719 q 326 811 326 757 q 373 962 326 896 q 511 1061 419 1028 q 549 1003 549 1042 l 549 990 q 451 872 456 947 q 512 851 500 869 q 524 788 524 833 q 517 738 524 756 q 499 713 511 721 q 467 703 486 704 q 424 701 449 701 q 343 719 367 701 z "},"”":{"ha":586,"x_min":38,"x_max":529,"o":"m 244 1042 q 260 935 260 1004 q 248 864 260 899 q 213 798 236 829 q 156 741 190 767 q 76 699 122 715 q 48 724 58 707 q 39 769 38 740 q 136 888 132 815 q 92 897 107 892 q 72 913 76 903 q 65 937 67 922 q 64 971 64 951 q 70 1024 64 1004 q 90 1049 76 1044 q 122 1057 104 1054 q 164 1060 140 1060 q 244 1042 218 1060 m 514 1042 q 529 935 529 1004 q 517 864 529 899 q 483 798 506 829 q 426 741 460 767 q 346 699 392 715 q 317 724 328 707 q 308 769 307 740 q 406 888 401 815 q 361 897 376 892 q 341 913 346 903 q 335 937 336 922 q 333 971 333 951 q 340 1024 333 1004 q 360 1049 346 1044 q 392 1057 374 1054 q 433 1060 410 1060 q 514 1042 488 1060 z "},"„":{"ha":588,"x_min":40,"x_max":532,"o":"m 247 140 q 263 35 263 107 q 251 -37 263 -1 q 216 -103 239 -72 q 159 -160 193 -135 q 79 -201 125 -185 q 51 -174 61 -193 q 40 -131 40 -156 q 109 -81 81 -112 q 139 -12 138 -50 q 95 -3 110 -8 q 76 13 81 3 q 69 37 71 22 q 67 72 67 51 q 73 122 67 103 q 92 147 79 142 q 124 156 106 153 q 165 160 142 160 q 247 140 219 160 m 517 140 q 532 35 532 107 q 520 -37 532 -1 q 485 -103 508 -72 q 428 -160 463 -135 q 349 -201 394 -185 q 320 -175 331 -193 q 310 -131 310 -157 q 378 -81 350 -112 q 408 -12 407 -50 q 365 -3 379 -8 q 345 13 350 3 q 338 37 340 22 q 336 72 336 51 q 342 122 336 103 q 362 147 349 142 q 393 156 375 153 q 435 160 411 160 q 517 140 489 160 z "},"•":{"ha":621,"x_min":153,"x_max":472,"o":"m 174 496 q 314 529 228 529 q 451 496 401 529 q 472 378 472 456 q 451 258 472 300 q 317 226 407 226 q 174 258 226 226 q 153 378 153 300 q 174 496 153 456 z "},"‹":{"ha":461,"x_min":46,"x_max":410,"o":"m 403 581 l 210 357 l 410 126 q 377 81 401 103 q 328 51 353 58 l 54 308 q 46 354 46 328 q 54 400 46 381 l 322 656 q 371 626 347 649 q 403 581 394 604 z "},"›":{"ha":461,"x_min":50,"x_max":425,"o":"m 58 128 l 250 351 l 50 581 q 83 626 58 603 q 132 656 108 649 l 407 399 q 407 308 425 353 l 138 51 q 90 81 114 58 q 58 128 67 104 z "},"⁄":{"ha":313,"x_min":-175,"x_max":489,"o":"m -175 0 l 347 949 q 422 956 375 957 q 489 949 468 956 l -35 0 q -109 -8 -62 -8 q -175 0 -156 -7 z "},"⁴":{"ha":583,"x_min":61,"x_max":517,"o":"m 429 754 l 428 683 l 513 683 q 517 634 517 664 q 507 581 517 604 l 428 581 l 428 472 q 371 467 406 467 q 310 472 336 467 l 310 531 l 311 581 l 254 579 l 89 579 q 61 649 61 624 q 82 717 61 675 l 244 1068 q 308 1063 274 1071 q 361 1040 343 1056 l 256 813 q 185 683 211 718 l 188 681 q 286 683 222 683 l 311 683 q 310 717 310 694 l 310 763 q 332 826 310 803 q 390 850 354 850 l 425 850 l 429 846 l 429 754 z "},"€":{"ha":786,"x_min":29,"x_max":756,"o":"m 689 715 q 479 796 583 796 q 290 601 326 796 l 576 601 q 582 551 582 575 q 576 503 582 526 l 279 503 l 279 449 q 281 393 279 411 l 576 393 q 582 342 582 367 q 576 294 582 318 l 292 294 q 479 104 328 104 q 689 185 583 104 q 756 94 740 153 q 460 -18 621 -18 q 144 294 196 -18 l 35 294 q 29 342 29 318 q 35 393 29 367 l 135 393 q 133 448 133 411 q 135 503 133 485 l 35 503 q 29 551 29 526 q 35 601 29 575 l 144 601 q 460 918 194 918 q 756 806 619 918 q 731 755 749 781 q 689 715 713 729 z "},"ẞ":{"ha":871,"x_min":21,"x_max":825,"o":"m 146 0 l 146 543 l 26 542 q 22 567 24 553 q 21 599 21 582 q 22 629 21 614 q 26 657 24 644 l 146 654 l 146 703 q 228 901 146 832 q 450 971 311 971 q 576 951 519 971 q 672 896 632 932 q 733 808 711 860 q 754 694 754 757 q 733 586 754 642 l 731 586 l 733 585 q 650 544 681 571 q 619 486 619 517 q 631 448 619 468 q 671 404 643 428 l 722 358 q 825 178 825 267 q 806 99 825 135 q 755 37 788 63 q 677 -3 722 11 q 579 -18 632 -18 q 394 22 478 -18 q 409 78 396 47 q 442 125 422 108 q 500 101 471 108 q 557 93 529 93 q 639 116 606 93 q 672 175 672 139 q 659 219 671 194 q 617 271 647 244 l 560 319 q 490 399 513 360 q 468 474 468 438 q 505 569 468 524 q 604 639 542 614 q 610 688 610 667 q 569 811 610 763 q 449 860 528 860 q 292 688 292 860 l 292 0 q 257 -4 276 -3 q 218 -6 238 -6 q 178 -4 197 -6 q 146 0 160 -3 z "}}}
